<svg width="337" height="280" viewBox="0 0 337 280" fill="none" xmlns="http://www.w3.org/2000/svg">
<g id="Illustration" clip-path="url(#clip0_339_979)">
<path id="Rectangle" d="M183.804 115.198C183.804 64.4421 142.658 23.2961 91.902 23.2961H48.6356C21.7749 23.2961 3.05176e-05 45.071 3.05176e-05 71.9317C3.05176e-05 98.7923 21.7749 120.567 48.6355 120.567H183.804V115.198Z" fill="#FEEBD2"/>
<path id="Rectangle_2" d="M122.701 234.686C122.701 176.224 170.094 128.832 228.555 128.832H278.462C309.361 128.832 334.409 153.88 334.409 184.779C334.409 215.677 309.361 240.726 278.462 240.726H122.701V234.686Z" fill="#FEEBD2"/>
<rect id="Rectangle_3" x="186.277" y="70.3423" width="113.801" height="31.7879" rx="15.894" stroke="#18233D" stroke-width="0.8" stroke-linecap="round"/>
<path id="Rectangle_4" d="M92.8207 31.561C92.8207 14.3562 106.768 0.408875 123.973 0.408875H144.635C153.237 0.408875 160.211 7.38252 160.211 15.985V15.985C160.211 24.5874 153.237 31.561 144.635 31.561H92.8207V31.561Z" stroke="#18233D" stroke-width="0.8" stroke-linecap="round"/>
<g id="Group 3">
<path id="Oval" fill-rule="evenodd" clip-rule="evenodd" d="M113.801 18.8459C115.556 18.8459 116.98 17.4227 116.98 15.6671C116.98 13.9115 115.556 12.4883 113.801 12.4883C112.045 12.4883 110.622 13.9115 110.622 15.6671C110.622 17.4227 112.045 18.8459 113.801 18.8459Z" fill="#18233D"/>
<path id="Oval_2" fill-rule="evenodd" clip-rule="evenodd" d="M127.787 18.8458C129.543 18.8458 130.966 17.4226 130.966 15.667C130.966 13.9114 129.543 12.4882 127.787 12.4882C126.032 12.4882 124.609 13.9114 124.609 15.667C124.609 17.4226 126.032 18.8458 127.787 18.8458Z" fill="#18233D"/>
<path id="Oval_3" fill-rule="evenodd" clip-rule="evenodd" d="M141.774 18.8458C143.53 18.8458 144.953 17.4226 144.953 15.667C144.953 13.9114 143.53 12.4882 141.774 12.4882C140.019 12.4882 138.595 13.9114 138.595 15.667C138.595 17.4226 140.019 18.8458 141.774 18.8458Z" fill="#18233D"/>
</g>
<path id="Path 83" fill-rule="evenodd" clip-rule="evenodd" d="M65.1591 279.409C65.1591 279.409 94.2016 114.563 95.4361 138.713C95.4361 138.713 153.078 92.4304 161.524 85.7566C167.245 81.2364 177.945 67.7614 184.255 59.5352C187.116 55.805 192.35 54.8219 196.332 57.3225C200.518 59.952 201.791 65.4709 199.181 69.669L182.209 96.9579L161.524 119.882L206.53 76.6585C210.006 73.3202 215.517 73.3864 218.912 76.8074C222.135 80.0556 222.342 85.2285 219.389 88.724L173.308 143.258L182.209 165.18C182.209 165.18 183.468 184.638 175.208 191.347C166.948 198.056 134.527 231.69 134.527 231.69L122.501 279.409H65.1591Z" fill="#FFB391"/>
<path id="Path 97" fill-rule="evenodd" clip-rule="evenodd" d="M179.92 135.421L180.331 98.8519L205.707 76.5344C208.798 73.8156 213.325 73.4969 216.767 75.7557C221.35 78.7636 222.277 85.0999 218.746 89.294L179.92 135.421Z" fill="#FF9B6F"/>
<path id="Path 94" fill-rule="evenodd" clip-rule="evenodd" d="M96.6652 204.442L84.7075 217.289L144.39 208.938L96.6652 204.442Z" fill="#FF9B6F"/>
<g id="Mobile">
<path id="Rectangle_5" fill-rule="evenodd" clip-rule="evenodd" d="M180.933 54.5281C180.922 49.5652 176.896 45.5477 171.933 45.5477H103.814C98.8357 45.5477 94.8031 49.5891 94.8139 54.5673L95.1307 199.957C95.1415 204.92 99.1678 208.938 104.131 208.938H172.25C177.228 208.938 181.261 204.896 181.25 199.918L180.933 54.5281Z" fill="#18233D"/>
<rect id="Rectangle_6" width="2.54303" height="34.331" rx="1.27152" transform="matrix(-1 0 0 1 99.8864 62.0774)" fill="#2760CB"/>
<rect id="Rectangle_7" width="2.54303" height="34.331" rx="1.27152" transform="matrix(-1 0 0 1 99.2507 62.0774)" fill="white"/>
<path id="Rectangle_8" d="M186.791 54.5291C186.781 49.8419 182.978 46.0476 178.291 46.0476H110.171C105.47 46.0476 101.661 49.8645 101.671 54.5661L101.988 199.956C101.998 204.643 105.801 208.438 110.488 208.438H178.608C183.309 208.438 187.118 204.621 187.108 199.919L186.791 54.5291Z" fill="white" stroke="#18233D" stroke-linecap="round"/>
<g id="Oval_4">
<path id="Mask" fill-rule="evenodd" clip-rule="evenodd" d="M145.661 206.395C143.203 206.395 141.211 204.402 141.211 201.944C141.211 199.486 143.203 197.494 145.661 197.494C148.119 197.494 150.111 199.486 150.111 201.944C150.111 204.402 148.119 206.395 145.661 206.395Z" fill="#2760CB"/>
<mask id="mask0_339_979" style="mask-type:luminance" maskUnits="userSpaceOnUse" x="141" y="197" width="10" height="10">
<path id="Mask_2" fill-rule="evenodd" clip-rule="evenodd" d="M145.661 206.395C143.203 206.395 141.211 204.402 141.211 201.944C141.211 199.486 143.203 197.494 145.661 197.494C148.119 197.494 150.111 199.486 150.111 201.944C150.111 204.402 148.119 206.395 145.661 206.395Z" fill="white"/>
</mask>
<g mask="url(#mask0_339_979)">
<path id="Oval_5" fill-rule="evenodd" clip-rule="evenodd" d="M144.39 206.395C141.932 206.395 139.939 204.402 139.939 201.944C139.939 199.486 141.932 197.494 144.39 197.494C146.847 197.494 148.84 199.486 148.84 201.944C148.84 204.402 146.847 206.395 144.39 206.395Z" fill="white"/>
</g>
</g>
<g id="Rectangle + Rectangle + Rectangle + Rectangle Mask">
<path id="Mask_3" fill-rule="evenodd" clip-rule="evenodd" d="M185.074 52.6991C185.079 50.1555 183.019 48.0907 180.475 48.0907H160.226C159.14 48.0907 158.182 48.7988 157.862 49.8364C157.543 50.874 156.584 51.5821 155.499 51.5821H135.709C134.3 51.5821 132.968 50.9393 132.091 49.8364C131.215 48.7334 129.882 48.0907 128.473 48.0907L110.45 48.0907C106.889 48.0907 104 50.9735 103.992 54.5346L103.714 185.932C103.704 190.91 107.736 194.951 112.714 194.951H175.792C180.755 194.951 184.782 190.933 184.792 185.97L185.074 52.6991Z" fill="#D7E3FF"/>
<mask id="mask1_339_979" style="mask-type:luminance" maskUnits="userSpaceOnUse" x="103" y="48" width="83" height="147">
<path id="Mask_4" fill-rule="evenodd" clip-rule="evenodd" d="M185.074 52.6991C185.079 50.1555 183.019 48.0907 180.475 48.0907H160.226C159.14 48.0907 158.182 48.7988 157.862 49.8364C157.543 50.874 156.584 51.5821 155.499 51.5821H135.709C134.3 51.5821 132.968 50.9393 132.091 49.8364C131.215 48.7334 129.882 48.0907 128.473 48.0907L110.45 48.0907C106.889 48.0907 104 50.9735 103.992 54.5346L103.714 185.932C103.704 190.91 107.736 194.951 112.714 194.951H175.792C180.755 194.951 184.782 190.933 184.792 185.97L185.074 52.6991Z" fill="white"/>
</mask>
<g mask="url(#mask1_339_979)">
<path id="Rectangle_9" fill-rule="evenodd" clip-rule="evenodd" d="M181.827 114.759C181.827 111.998 179.588 109.759 176.827 109.759H111.807C109.046 109.759 106.807 111.998 106.807 114.759V137.819C106.807 140.58 109.046 142.819 111.807 142.819H176.827C179.588 142.819 181.827 140.58 181.827 137.819V114.759Z" stroke="#18233D" stroke-width="0.8" stroke-linecap="round"/>
<g id="Group 2">
<path id="Path 96" d="M142.15 120.249H160.141" stroke="#18233D" stroke-linecap="round"/>
<path id="Path 96_2" d="M142.15 126.607H172.856" stroke="#18233D" stroke-linecap="round"/>
<path id="Path 96_3" d="M142.15 132.964H148.508" stroke="#18233D" stroke-linecap="round"/>
<path id="Oval_6" fill-rule="evenodd" clip-rule="evenodd" d="M125.209 135.825C130.476 135.825 134.746 131.556 134.746 126.289C134.746 121.022 130.476 116.753 125.209 116.753C119.943 116.753 115.673 121.022 115.673 126.289C115.673 131.556 119.943 135.825 125.209 135.825Z" fill="white"/>
</g>
<path id="Rectangle_10" fill-rule="evenodd" clip-rule="evenodd" d="M181.827 73.4349C181.827 70.6735 179.588 68.4349 176.827 68.4349H111.807C109.046 68.4349 106.807 70.6735 106.807 73.4349V96.4944C106.807 99.2558 109.046 101.494 111.807 101.494H176.827C179.588 101.494 181.827 99.2558 181.827 96.4944V73.4349Z" stroke="#18233D" stroke-width="0.8" stroke-linecap="round"/>
<path id="Rectangle_11" fill-rule="evenodd" clip-rule="evenodd" d="M181.827 156.083C181.827 153.322 179.588 151.083 176.827 151.083H111.807C109.046 151.083 106.807 153.322 106.807 156.083V179.143C106.807 181.904 109.046 184.143 111.807 184.143H176.827C179.588 184.143 181.827 181.904 181.827 179.143V156.083Z" stroke="#18233D" stroke-width="0.8" stroke-linecap="round"/>
<g id="Group 2_2">
<path id="Path 96_4" d="M142.15 161.573H160.141" stroke="#18233D" stroke-linecap="round"/>
<path id="Path 96_5" d="M142.15 167.931H172.856" stroke="#18233D" stroke-linecap="round"/>
<path id="Path 96_6" d="M142.15 174.289H148.508" stroke="#18233D" stroke-linecap="round"/>
<path id="Oval_7" fill-rule="evenodd" clip-rule="evenodd" d="M125.209 177.15C130.476 177.15 134.746 172.88 134.746 167.613C134.746 162.346 130.476 158.077 125.209 158.077C119.943 158.077 115.673 162.346 115.673 167.613C115.673 172.88 119.943 177.15 125.209 177.15Z" fill="white"/>
</g>
</g>
</g>
<rect id="Rectangle_12" width="13.9867" height="0.635758" rx="0.317879" transform="matrix(-1 0 0 1 150.747 48.7264)" fill="#19243D"/>
<path id="Oval_8" fill-rule="evenodd" clip-rule="evenodd" d="M154.244 49.998C153.717 49.998 153.29 49.571 153.29 49.0443C153.29 48.5177 153.717 48.0907 154.244 48.0907C154.77 48.0907 155.197 48.5177 155.197 49.0443C155.197 49.571 154.77 49.998 154.244 49.998Z" fill="#19243D"/>
<path id="Path 106" d="M99.2507 79.2428H96.7077" stroke="#85B0FF" stroke-width="1.8"/>
</g>
<path id="Path 84" fill-rule="evenodd" clip-rule="evenodd" d="M94.8003 206.395C94.8003 206.395 105.903 192.153 105.903 167.896C105.903 143.639 94.8003 127.243 94.8003 127.243V99.4607C94.8003 95.5087 94.077 91.5901 92.6659 87.8986L87.3654 74.0315C85.7647 69.8437 81.7462 67.0776 77.2629 67.0776C75.7696 67.0776 74.559 68.2882 74.559 69.7815V129.791C74.559 129.791 72.8627 189.229 60.4088 222.288C47.9549 255.348 37.9624 279.409 37.9624 279.409H81.1434L84.7074 217.289L94.8003 206.395Z" fill="#FFB391"/>
<path id="Path 85" fill-rule="evenodd" clip-rule="evenodd" d="M187.529 127.878L196.295 135.572C201.864 140.46 203.145 148.63 199.34 154.988C198.964 155.615 198.439 156.141 197.812 156.517L169.566 173.484C166.437 175.364 162.384 174.478 160.324 171.464C158.391 168.636 158.827 164.817 161.349 162.498L187.529 138.423V127.878Z" fill="#FFB391"/>
<path id="Path 98" fill-rule="evenodd" clip-rule="evenodd" d="M91.6539 254.937C115.64 257.894 130.409 247.654 130.409 247.654L131.971 242.077C131.971 242.077 135.501 245.244 132.51 257.85C129.519 270.455 105.903 274.644 89.5353 272.399C73.1675 270.154 53.1342 258.697 50.638 247.654C49.7803 243.859 49.2918 243.376 52.5829 235.078C55.874 226.781 58.8653 226.352 58.8653 226.352L56.9092 232.224C56.9092 232.224 67.6676 251.98 91.6539 254.937Z" fill="#779CF7"/>
<path id="Combined Shape" fill-rule="evenodd" clip-rule="evenodd" d="M104.264 255.355V272.737C99.1937 273.15 94.0845 273.023 89.5353 272.399C73.1675 270.154 53.1342 258.697 50.638 247.654C50.5805 247.399 50.5246 247.16 50.4714 246.932C49.7318 243.759 49.5126 242.819 52.5829 235.078C55.874 226.781 58.8653 226.352 58.8653 226.352L56.9092 232.224C56.9092 232.224 67.6676 251.98 91.6539 254.937C96.2013 255.498 100.417 255.584 104.264 255.355Z" fill="#497AF3"/>
<path id="Path 102" fill-rule="evenodd" clip-rule="evenodd" d="M52.9987 245.888C56.0899 242.362 61.3829 241.817 65.2939 244.404C70.4135 247.79 77.4153 251.984 82.6486 253.441L52.9987 245.888Z" fill="#18233D"/>
<path id="Oval_9" fill-rule="evenodd" clip-rule="evenodd" d="M118.251 262.977C119.304 262.977 120.158 262.123 120.158 261.07C120.158 260.017 119.304 259.163 118.251 259.163C117.198 259.163 116.344 260.017 116.344 261.07C116.344 262.123 117.198 262.977 118.251 262.977Z" fill="#18233D"/>
<path id="Path 101" fill-rule="evenodd" clip-rule="evenodd" d="M90.6863 254.734C90.6863 254.734 80.2896 253.34 71.9327 249.664C67.8606 247.873 63.6612 245.407 60.4256 243.35C57.2344 241.322 52.9277 242.09 50.8209 245.23C49.083 247.82 49.3803 251.265 51.6462 253.408C56.687 258.177 65.8008 266.101 73.1211 268.631C83.837 272.334 91.8886 272.976 101.339 272.976L105.672 268.631V257.015L90.6863 254.734Z" fill="#779CF7"/>
<path id="Path 99" fill-rule="evenodd" clip-rule="evenodd" d="M90.6863 254.734C90.6863 254.734 100.875 254.734 102.974 254.734C105.073 254.734 108.334 256.482 107.413 264.463C106.493 272.445 104.771 274.154 102.417 274.154C100.062 274.154 89.0345 272.393 89.0345 272.393L99.6753 271.334C101.589 271.143 103.096 269.619 103.264 267.703L103.844 261.09C104.021 259.072 102.662 257.241 100.679 256.826L90.6863 254.734Z" fill="white"/>
<path id="Oval_10" fill-rule="evenodd" clip-rule="evenodd" d="M98.5426 266.792C99.9471 266.792 101.086 265.653 101.086 264.249C101.086 262.844 99.9471 261.706 98.5426 261.706C97.1381 261.706 95.9995 262.844 95.9995 264.249C95.9995 265.653 97.1381 266.792 98.5426 266.792Z" fill="#18233D"/>
<path id="Oval_11" fill-rule="evenodd" clip-rule="evenodd" d="M80.7413 262.977C81.7947 262.977 82.6486 262.123 82.6486 261.07C82.6486 260.017 81.7947 259.163 80.7413 259.163C79.688 259.163 78.8341 260.017 78.8341 261.07C78.8341 262.123 79.688 262.977 80.7413 262.977Z" fill="#18233D"/>
<path id="Path 100" fill-rule="evenodd" clip-rule="evenodd" d="M98.4684 263.173C97.8548 263.09 97.2877 263.514 97.1949 264.126C97.0941 264.792 97.5916 265.398 98.2636 265.428L104.694 265.723C105.134 265.743 105.516 265.42 105.57 264.982C105.627 264.524 105.304 264.105 104.846 264.043L98.4684 263.173Z" fill="#D7E3FF"/>
<path id="Oval_12" fill-rule="evenodd" clip-rule="evenodd" d="M63.5759 255.348C64.6292 255.348 65.4831 254.494 65.4831 253.441C65.4831 252.387 64.6292 251.533 63.5759 251.533C62.5225 251.533 61.6686 252.387 61.6686 253.441C61.6686 254.494 62.5225 255.348 63.5759 255.348Z" fill="#18233D"/>
<path id="Path 85_2" fill-rule="evenodd" clip-rule="evenodd" d="M190.155 152.037L197.669 158.632C202.442 162.822 203.54 169.824 200.278 175.274C199.956 175.812 199.507 176.262 198.969 176.585L174.758 191.128C172.076 192.739 168.602 191.98 166.836 189.396C165.179 186.972 165.553 183.699 167.715 181.711L190.155 161.076V152.037Z" fill="#FFB391"/>
<path id="Path 86" d="M171.483 172.699L196.299 157.157" stroke="#18233D" stroke-linecap="round"/>
<path id="Path 87" d="M96.6652 204.442L84.7075 217.289" stroke="#18233D" stroke-linecap="round"/>
<path id="Rectangle_13" fill-rule="evenodd" clip-rule="evenodd" d="M141.138 66.4416C141.138 63.6802 143.377 61.4417 146.138 61.4417H226.416C229.177 61.4417 231.416 63.6802 231.416 66.4417V89.5011C231.416 92.2625 229.177 94.5011 226.416 94.5011H146.138C143.377 94.5011 141.138 92.2625 141.138 89.5011V66.4416Z" fill="#0ACC94"/>
<path id="Path 96_7" d="M173.973 71.9318H191.964" stroke="white" stroke-width="3"/>
<path id="Path 96_8" d="M173.973 78.2893H204.679" stroke="white" stroke-width="3"/>
<path id="Path 96_9" d="M173.973 84.647H180.331" stroke="white" stroke-width="3"/>
<path id="Oval_13" fill-rule="evenodd" clip-rule="evenodd" d="M157.032 87.5078C162.299 87.5078 166.569 83.2382 166.569 77.9714C166.569 72.7046 162.299 68.4351 157.032 68.4351C151.766 68.4351 147.496 72.7046 147.496 77.9714C147.496 83.2382 151.766 87.5078 157.032 87.5078Z" fill="white"/>
<g id="1063299">
<path id="Shape" fill-rule="evenodd" clip-rule="evenodd" d="M156.512 78.2682H158.188V78.8615H156.512V78.2682ZM160.319 78.8615C160.68 78.8615 160.999 78.617 161.114 78.2531L162.118 75.0525V81.5317C162.118 82.0225 161.742 82.4218 161.28 82.4218H153.42C152.958 82.4218 152.582 82.0225 152.582 81.5317V75.0523L153.587 78.2531C153.701 78.617 154.02 78.8615 154.382 78.8615H155.953V79.1582C155.953 79.3222 156.078 79.4549 156.233 79.4549H158.468C158.622 79.4549 158.747 79.3222 158.747 79.1582V78.8615H160.319ZM158.468 73.5211C158.93 73.5211 159.306 73.9204 159.306 74.4112V74.7079H161.638L160.584 78.0653C160.546 78.1867 160.439 78.2681 160.319 78.2681H158.747V77.9714C158.747 77.8075 158.622 77.6747 158.468 77.6747H156.233C156.078 77.6747 155.953 77.8075 155.953 77.9714V78.2681H154.382C154.261 78.2681 154.155 78.1867 154.116 78.0653L153.063 74.7079H155.395V74.4112C155.395 73.9204 155.771 73.5211 156.233 73.5211H158.468ZM155.953 74.7078H158.747V74.4111C158.747 74.2474 158.622 74.1145 158.468 74.1145H156.233C156.079 74.1145 155.953 74.2474 155.953 74.4111V74.7078Z" fill="#18233D"/>
</g>
<g id="Group">
<path id="Path 88" fill-rule="evenodd" clip-rule="evenodd" d="M259.862 278.901L251.162 245.629C248.042 233.696 242.448 222.553 234.744 212.922L221.613 196.505C214.887 188.097 212.406 177.061 214.885 166.583L217.79 154.308L187.971 85.504C186.757 82.7027 187.756 79.4344 190.329 77.7911C193.118 76.0098 196.814 76.7251 198.737 79.4183L232.975 127.371C236.422 119.546 246.911 118.11 252.334 124.72L257.319 130.796C260.783 124.745 269.263 124.105 273.595 129.568L280.586 138.384C286.378 137.03 292.351 139.768 295.107 145.038L298.78 152.062C300.359 155.084 301.256 158.415 301.406 161.822L303.647 212.869L336.78 278.901H259.862Z" fill="#FFB391"/>
<path id="Path 95" fill-rule="evenodd" clip-rule="evenodd" d="M227.074 176.324L232.976 186.173L227.535 183.373C223.443 181.268 220.647 177.286 220.056 172.722L217.79 155.216L227.074 176.324Z" fill="#FF9B6F"/>
<path id="Path 89" d="M217.79 154.308L227.074 176.324" stroke="#18233D" stroke-linecap="round"/>
<path id="Path 90" fill-rule="evenodd" clip-rule="evenodd" d="M223.703 167.224V168.776C223.703 172.476 225.418 175.968 228.346 178.232L223.703 167.224Z" fill="#18233D"/>
<path id="Path 91" d="M232.976 126.735L242.533 144.107" stroke="#18233D" stroke-linecap="round"/>
<path id="Path 92" d="M257.319 130.796L261.903 138.815" stroke="#18233D" stroke-linecap="round"/>
<path id="Path 92_2" d="M280.022 137.861L284.605 145.88" stroke="#18233D" stroke-linecap="round"/>
</g>
</g>
<defs>
<clipPath id="clip0_339_979">
<rect width="337" height="279.182" fill="white" transform="translate(0 0.408875)"/>
</clipPath>
</defs>
</svg>
