<svg width="487" height="389" viewBox="0 0 487 389" fill="none" xmlns="http://www.w3.org/2000/svg">
<path d="M336.52 106.347C302.936 74.8436 263.588 66.7109 253.191 65.0512C260.198 46.1406 271.02 18.0288 273.715 13.8691C274.586 13.755 276.358 13.5683 278.97 13.5683C286.61 13.5683 302.956 15.1554 326.621 25.8088C360.776 41.1925 369.929 58.4952 371.722 62.7275L336.52 106.347Z" fill="white"/>
<path d="M278.981 15.643C286.454 15.643 302.469 17.2094 325.781 27.7072C356.681 41.6282 366.674 57.1778 369.307 62.4475L336.313 103.318C316.463 85.2273 295.058 75.2378 280.266 69.9785C269.766 66.2441 261.183 64.3354 256.031 63.4122C263.774 42.5929 272.191 21.172 275.021 15.809C275.923 15.726 277.25 15.643 278.981 15.643ZM278.981 11.4937C274.824 11.4937 272.689 11.9293 272.689 11.9293C270.263 12.7385 250.361 66.742 250.361 66.742C250.361 66.742 297.587 71.5656 336.728 109.397L374.085 63.1114C374.085 63.1114 367.856 42.095 327.481 23.9209C303.817 13.2571 287.325 11.4937 278.981 11.4937Z" fill="#A0C6F4"/>
<path d="M257.296 70.9432C257.296 70.9432 303.734 75.6424 332.353 101.928" stroke="#2A1E17" stroke-miterlimit="10" stroke-linecap="round" stroke-linejoin="round"/>
<path d="M297.4 68.6715L314.721 34.9581L332.529 70.1133L297.4 68.6715Z" fill="#A0C6F4"/>
<path d="M300.769 68.1943L318.09 34.481L335.898 69.6362L300.769 68.1943Z" stroke="#2A1E17" stroke-miterlimit="10" stroke-linecap="round" stroke-linejoin="round"/>
<path d="M284.505 9.43973C284.505 9.43973 336.572 14.1388 368.944 52.6239" stroke="#2A1E17" stroke-miterlimit="10" stroke-linecap="round" stroke-linejoin="round"/>
<path d="M311.104 158.836C308.243 156.731 306.367 155.32 306.367 155.32C307.154 154.262 319.686 140.901 326.942 130.133C326.953 130.144 312.275 159.697 311.104 158.836Z" fill="#2A1E17"/>
<path d="M133.561 61.462C134.961 63.7856 135.572 62.8624 139.604 62.5512C143.637 62.24 149.369 65.186 151.39 70.1549C153.411 75.1237 152.789 75.8913 151.701 76.5137C150.613 77.1361 142.859 78.0697 142.548 79.6153" stroke="#2A1E17" stroke-miterlimit="10" stroke-linecap="round" stroke-linejoin="round"/>
<path d="M238.016 314.011L234.398 307.901L221.586 329.281L224.945 331.864L238.016 314.011Z" fill="#F9865F"/>
<path d="M152.914 261.003C152.914 261.003 146.269 250.194 149.12 244.904L170.307 247.176L152.914 261.003Z" fill="#F9865F"/>
<path d="M152.914 261.003L154.178 263.918L150.26 279.188C149.763 281.107 150.405 283.151 151.908 284.447L171.282 255.786C173.127 253.068 172.702 249.406 170.297 247.165L165.964 243.141L152.914 261.003Z" fill="black"/>
<path d="M142.548 79.6153C148.612 79.4701 156.303 79.0863 154.769 74.4702C153.235 69.854 147.461 58.3085 134.39 61.7732C134.39 61.7732 129.778 65.6217 135.541 72.5407C141.315 79.4701 142.548 79.6153 142.548 79.6153Z" fill="#2A1E33"/>
<path d="M173.262 247.435C173.262 247.435 162.906 216.834 171.665 203.4C178.9 192.311 202.524 210.35 205.768 212.778L222.675 182.218C222.675 182.218 218.767 176.741 209.189 171.378C199.611 166.015 160.025 149.957 141.418 179.334C134.546 190.195 134.442 236.771 147.627 254.624L173.262 247.435Z" fill="#7595EC"/>
<path d="M173.261 247.435C173.261 247.435 162.906 216.834 171.665 203.4C178.9 192.311 202.524 210.35 205.768 212.778" stroke="#2A1E17" stroke-miterlimit="10" stroke-linecap="round" stroke-linejoin="round"/>
<path d="M222.674 182.218C214.983 190.32 192.189 229.78 187.058 248.638C180.196 273.866 182.777 294.789 220.467 335.754L238.689 309.198C238.689 309.198 225.877 289.727 228.272 271.387C231.734 244.842 250.61 219.106 260.157 202.778L222.674 182.218Z" fill="#7595EC"/>
<path d="M225.567 185.641L255.865 209.448L264.925 195.672L225.567 185.641Z" fill="#2A1E17"/>
<path d="M399.626 160.621C404.353 161.637 407.95 163.432 410.427 166.025C412.905 168.619 411.775 169.967 410.873 170.755C409.971 171.544 406.488 170.641 403.451 167.944C400.414 165.247 399.626 160.621 399.626 160.621Z" fill="#FF8A66"/>
<path d="M306.367 155.32C307.154 154.262 319.686 140.901 326.942 130.133C326.942 130.133 348.866 154.718 351.25 155.517C352.131 155.807 357.511 155.745 364.186 155.673C375.464 155.559 390.463 155.444 393.78 157.104C399.066 159.749 402.238 161.067 403.555 164.77C404.871 168.473 405.4 170.89 402.238 171.119C398.538 171.378 396.164 166.627 396.164 166.627C396.164 166.627 393.137 168.453 385.332 171.388C385.332 171.388 357.231 182.301 338.448 177.021C333.328 175.579 306.367 155.32 306.367 155.32Z" fill="#F9865F"/>
<path d="M136.038 57.1156C133.623 58.0388 132.162 59.128 133.561 61.462C134.96 63.7856 135.572 62.8624 139.604 62.5512C143.636 62.24 149.369 65.186 151.39 70.1549C153.411 75.1237 152.789 75.8913 151.701 76.5137C150.613 77.1361 142.859 78.0697 142.548 79.6153C142.237 81.1713 145.689 85.746 152.82 85.4348L154.531 85.1236C154.531 85.1236 169.53 99.7811 171.696 101.959C173.863 104.138 189.815 114.947 198.605 117.146C205.281 118.816 218.818 116.659 226.945 115.071C230.894 114.304 233.569 113.661 233.569 113.661C233.569 113.661 227.463 102.665 226.23 85.746C226.23 85.746 211.635 88.0904 201.933 90.2273C201.933 90.2273 179.294 77.5925 168.286 72.0117C168.286 72.0117 158.677 60.2172 154.178 58.6716C149.68 57.1156 139.293 55.8811 136.038 57.1156Z" fill="#F9865F"/>
<path d="M226.955 115.071C230.905 114.304 233.579 113.661 233.579 113.661C233.579 113.661 226.199 104.345 224.955 87.4368C224.955 87.4368 221.617 91.0364 222.654 100.611C223.96 112.665 226.955 115.071 226.955 115.071Z" fill="#2A1E17"/>
<path d="M224.602 85.5489C224.602 85.5489 224.81 106.213 230.345 114.843L232.325 114.044C232.325 114.044 206.245 144.573 197.818 164.521C196.439 167.789 251.957 203.276 260.157 202.778C260.157 202.778 287.211 161.461 296.457 149.22L306.398 156.928C306.398 156.928 325.895 137.167 326.942 130.144C326.942 130.144 308.108 107.208 292.694 100.487C277.281 93.775 263.515 82.2606 246.961 82.5821C232.636 82.8518 224.602 85.5489 224.602 85.5489Z" fill="#FFF7C9"/>
<path d="M306.398 156.928L296.457 149.21L298.043 144.895L306.398 156.928Z" fill="#2A1E17"/>
<path d="M321.521 75.1963C319.78 80.6112 314.752 96.2853 309.145 98.2251C303.537 100.165 297.701 97.7272 297.701 97.7272L291.73 100.787C291.067 102.789 286.351 104.511 280.266 104.75C275.757 104.926 273.01 99.1276 274.347 94.9367C274.959 93.0073 277.25 83.5157 277.25 83.5157C277.25 83.5157 282.08 65.7151 286.527 62.0325C290.974 58.3604 295.151 54.7193 307.02 59.5118C325.201 66.8769 321.521 75.1963 321.521 75.1963Z" fill="#F9865F"/>
<path d="M285.49 75.9639C284.692 79.2938 281.23 85.9431 278.97 84.7501C276.711 83.5572 275.912 80.4867 277.509 74.6361C279.105 68.7856 280.432 55.4662 284.951 53.0803C289.471 50.6841 291.471 53.4745 291.471 53.4745C291.471 53.4745 289.481 43.7547 295.327 42.4269C295.327 42.4269 297.317 41.4933 296.519 48.153C296.519 48.153 298.779 42.0328 306.097 42.8315C313.415 43.6302 315.934 53.8791 315.934 53.8791C315.934 53.8791 316.463 51.0887 319.79 51.0887C323.117 51.0887 328.166 56.016 326.973 61.4724C326.973 61.4724 335.484 58.8064 340.003 65.601C344.523 72.3851 343.994 79.8435 333.089 82.7688C321.687 85.829 321.78 72.52 320.06 70.7876C318.329 69.0553 316.473 67.0636 310.088 69.4598C303.703 71.8561 297.058 64.8022 297.058 64.8022C297.058 64.8022 295.991 73.3187 294.933 74.1175C293.866 74.9162 291.741 75.9847 292.269 71.9909C292.798 67.9972 293.461 68.4018 293.068 67.3333C292.674 66.2649 290.87 62.9143 287.087 65.8707C282.826 69.1798 285.49 75.9639 285.49 75.9639Z" fill="#2A1E33"/>
<path d="M287.294 77.4577C284.754 75.3208 283.002 71.5656 285.231 67.8105C287.46 64.0553 291.119 63.5471 292.228 64.9682C293.347 66.3893 293.772 68.7856 292.725 71.6279" stroke="#2A1E33" stroke-miterlimit="10" stroke-linecap="round" stroke-linejoin="round"/>
<path d="M224.944 331.864L226.209 334.779L222.291 350.048C221.793 351.967 222.436 354.011 223.939 355.307L243.312 326.646C245.157 323.928 244.732 320.266 242.328 318.026L237.995 314.001L224.944 331.864Z" fill="black"/>
<path d="M291.471 53.4745C291.471 53.4745 289.989 48.6405 285.542 47.375" stroke="#2A1E33" stroke-miterlimit="10" stroke-linecap="round" stroke-linejoin="round"/>
<path d="M197.206 163.058L250.879 88.0281" stroke="#2A1E17" stroke-miterlimit="10" stroke-linecap="round" stroke-linejoin="round"/>
<path d="M273.01 93.277C271.072 95.7977 270.19 106.617 279.095 107.323C287.988 108.028 293.679 104.117 293.679 104.117" stroke="#2A1E17" stroke-miterlimit="10" stroke-linecap="round" stroke-linejoin="round"/>
<path d="M154.178 58.6716C154.178 58.6716 160.315 66.7939 161.279 69.688" stroke="#2A1E17" stroke-miterlimit="10" stroke-linecap="round" stroke-linejoin="round"/>
<path d="M383.901 167.623C383.901 167.623 387.996 171.004 396.164 166.627C399.129 165.04 397.014 161.295 393.272 162.229C389.53 163.162 385.073 161.762 385.073 161.762" stroke="#2A1E17" stroke-miterlimit="10" stroke-linecap="round" stroke-linejoin="round"/>
<path d="M401.026 161.087C401.026 161.087 404.954 165.683 404.85 168.411" stroke="#2A1E17" stroke-miterlimit="10" stroke-linecap="round" stroke-linejoin="round"/>
<path d="M343.154 160.59C343.154 160.59 346.71 155.849 351.26 155.527" stroke="#2A1E17" stroke-miterlimit="10" stroke-linecap="round" stroke-linejoin="round"/>
<path d="M193.205 97.8932C193.205 97.8932 195.278 91.4202 201.933 90.2273" stroke="#2A1E17" stroke-miterlimit="10" stroke-linecap="round" stroke-linejoin="round"/>
<path d="M211.231 196.098L203.301 211.284C203.301 211.284 177.138 255.599 186.011 284.219" stroke="#2A1E17" stroke-miterlimit="10" stroke-linecap="round" stroke-linejoin="round"/>
<path d="M234.408 246.937L260.146 202.778C260.146 202.778 293.886 153.805 297.338 146.897L309.248 124.853" stroke="#2A1E17" stroke-miterlimit="10" stroke-linecap="round" stroke-linejoin="round"/>
<path d="M200.803 167.768C200.803 167.768 246.578 201.17 260.157 202.778" stroke="#2A1E17" stroke-miterlimit="10" stroke-linecap="round" stroke-linejoin="round"/>
<path d="M224.602 85.5489C224.602 85.5489 224.561 106.513 230.21 115.103" stroke="#2A1E17" stroke-miterlimit="10" stroke-linecap="round" stroke-linejoin="round"/>
<path d="M325.481 126.814C324.04 135.455 304.936 153.598 304.936 153.598" stroke="#2A1E17" stroke-miterlimit="10" stroke-linecap="round" stroke-linejoin="round"/>
<path d="M182.891 234.417C184.391 234.417 185.607 233.2 185.607 231.699C185.607 230.198 184.391 228.981 182.891 228.981C181.391 228.981 180.175 230.198 180.175 231.699C180.175 233.2 181.391 234.417 182.891 234.417Z" fill="#2A1E17"/>
<path d="M437.927 290.152L436.424 279.748L445.287 285.65L440.653 286.657L437.927 290.152Z" stroke="#2A1E17" stroke-miterlimit="10" stroke-linecap="round" stroke-linejoin="round"/>
<path d="M143.813 112.53C127.01 97.6961 99.2406 134.698 200.855 252.466C259.473 320.412 305.527 326.501 311.767 302.86C322.962 260.454 282.536 249.738 297.577 266.346C319.448 290.495 381.663 295.599 428.018 273.057C473.761 250.817 445.639 216.284 442.799 214.272" stroke="#2A1E17" stroke-miterlimit="10" stroke-linecap="round" stroke-linejoin="round"/>
<path d="M428.754 275.568C430.254 275.568 431.469 274.351 431.469 272.85C431.469 271.349 430.254 270.132 428.754 270.132C427.254 270.132 426.038 271.349 426.038 272.85C426.038 274.351 427.254 275.568 428.754 275.568Z" fill="#2A1E17"/>
<path d="M389.198 295.059L469.77 249.603" stroke="#2A1E17" stroke-miterlimit="10" stroke-linecap="round" stroke-linejoin="round"/>
<path d="M145.482 117.447C146.982 117.447 148.197 116.23 148.197 114.729C148.197 113.228 146.982 112.011 145.482 112.011C143.982 112.011 142.766 113.228 142.766 114.729C142.766 116.23 143.982 117.447 145.482 117.447Z" fill="#2A1E17"/>
<path d="M214.797 64.3977C218.02 64.3977 220.632 61.7829 220.632 58.5575C220.632 55.332 218.02 52.7173 214.797 52.7173C211.574 52.7173 208.961 55.332 208.961 58.5575C208.961 61.7829 211.574 64.3977 214.797 64.3977Z" fill="#FF6D66"/>
<path d="M108.974 14.0455C107.554 14.0455 106.414 15.1969 106.414 16.6077C106.414 18.0185 107.564 19.1699 108.974 19.1699C110.384 19.1699 111.534 18.0185 111.534 16.6077C111.534 15.1969 110.394 14.0455 108.974 14.0455Z" fill="#A0C6F4"/>
<path d="M452.491 332.694C453.905 332.694 455.051 331.546 455.051 330.131C455.051 328.716 453.905 327.569 452.491 327.569C451.077 327.569 449.931 328.716 449.931 330.131C449.931 331.546 451.077 332.694 452.491 332.694Z" fill="#FAD8B0"/>
<path d="M406.685 214.261L379.123 201.315C376.894 200.268 376.936 197.093 379.185 196.097L430.454 173.525C431.179 173.204 432.008 173.204 432.734 173.515L467.956 188.639L406.685 214.261Z" fill="#2A1E33"/>
<path d="M404.975 171.72C405.047 183.131 406.685 214.261 406.685 214.261L467.956 188.649L466.578 145.341C466.495 142.685 463.738 140.963 461.312 142.073L408.551 166.129C406.364 167.125 404.964 169.314 404.975 171.72Z" fill="#C6CBCB"/>
<path d="M406.685 214.261L467.956 188.649L466.578 145.341C466.578 145.341 466.174 140.611 461.312 142.073" stroke="#2A1E17" stroke-miterlimit="10" stroke-linecap="round" stroke-linejoin="round"/>
<path d="M436.341 183.131L440.477 173.349" stroke="#2A1E17" stroke-miterlimit="10" stroke-linecap="round" stroke-linejoin="round"/>
<path d="M440.477 183.131L444.613 173.349" stroke="#2A1E17" stroke-miterlimit="10" stroke-linecap="round" stroke-linejoin="round"/>
<path d="M120.024 289.872C121.438 289.872 122.584 288.725 122.584 287.31C122.584 285.895 121.438 284.748 120.024 284.748C118.61 284.748 117.463 285.895 117.463 287.31C117.463 288.725 118.61 289.872 120.024 289.872Z" fill="#FF6D66"/>
<path d="M336.178 303.596C338.148 303.596 339.744 301.999 339.744 300.028C339.744 298.057 338.148 296.46 336.178 296.46C334.209 296.46 332.612 298.057 332.612 300.028C332.612 301.999 334.209 303.596 336.178 303.596Z" fill="#FF6D66"/>
<path d="M146.591 325.349C150.758 327.351 162.896 332.403 178.963 332.299C179.844 332.289 180.517 333.067 180.414 333.949L178.175 351.718C178.092 352.351 177.615 352.859 176.993 352.973C172.453 353.824 154.168 356.334 140.485 344.727C140.06 344.364 139.884 343.783 140.029 343.243L144.549 326.304C144.787 325.411 145.772 324.955 146.591 325.349Z" fill="#FFF7DC"/>
<path d="M148.197 330.577C148.197 330.577 156.096 341.687 158.915 343.285C161.735 344.872 176.952 335.805 176.952 335.805" stroke="#2A1E17" stroke-miterlimit="10" stroke-linecap="round" stroke-linejoin="round"/>
<path d="M166.379 341.729L174.671 350.266" stroke="#2A1E17" stroke-miterlimit="10" stroke-linecap="round" stroke-linejoin="round"/>
<path d="M154.842 340.079L145.129 342.725" stroke="#2A1E17" stroke-miterlimit="10" stroke-linecap="round" stroke-linejoin="round"/>
<path d="M400.808 115.196H391.531V124.48H400.808V115.196Z" fill="#FFE1C0"/>
<path d="M392.785 240.392L395.542 245.174L398.299 249.956H392.785H387.281L390.028 245.174L392.785 240.392Z" fill="#A0C6F4"/>
<path d="M169.872 28.703L170.587 7.01237C170.515 4.98957 171.333 4.34643 172.577 4.06635C178.465 2.75931 196.366 -1.23443 215.833 4.53315C218.352 5.28003 218.269 6.60781 218.228 7.81112L217.533 28.4955C217.481 30.0101 215.895 31.1096 214.123 30.8503C208.442 30.0204 200.71 29.7611 192.853 29.8233C184.736 29.8959 177.511 30.4976 172.453 31.4727C170.535 31.8358 169.81 30.3939 169.872 28.703Z" stroke="#2A1E17" stroke-miterlimit="10" stroke-linecap="round" stroke-linejoin="round"/>
<path d="M176.423 25.5288L187.753 12.2509L200.295 24.6367C195.973 23.2363 176.423 25.5288 176.423 25.5288Z" stroke="#2A1E17" stroke-miterlimit="10" stroke-linecap="round" stroke-linejoin="round"/>
<path d="M194.698 18.4023L203.861 11.058L211.583 16.5766L211.873 25.1968L200.295 24.6367" stroke="#2A1E17" stroke-miterlimit="10" stroke-linecap="round" stroke-linejoin="round"/>
<path d="M181.354 11.2774C181.459 10.2344 180.552 9.28836 179.327 9.16445C178.103 9.04053 177.025 9.78564 176.919 10.8287C176.814 11.8718 177.721 12.8178 178.946 12.9417C180.17 13.0656 181.248 12.3205 181.354 11.2774Z" stroke="#2A1E17" stroke-miterlimit="10" stroke-linecap="round" stroke-linejoin="round"/>
<path d="M388.991 310.546L396.589 324.592C397.387 325.847 397.107 326.563 396.413 327.206C393.158 330.225 383.269 339.426 368.757 343.005C366.881 343.471 366.435 342.59 366.021 341.812L358.775 328.42C358.247 327.434 358.837 326.148 360.061 325.65C363.979 324.063 368.985 321.355 373.951 318.389C379.082 315.329 383.445 312.258 386.296 309.758C387.405 308.804 388.4 309.447 388.991 310.546Z" stroke="#2A1E17" stroke-miterlimit="10" stroke-linecap="round" stroke-linejoin="round"/>
<path d="M386.006 314.997L383.736 327.642L371.162 324.436C374.448 323.731 386.006 314.997 386.006 314.997Z" stroke="#2A1E17" stroke-miterlimit="10" stroke-linecap="round" stroke-linejoin="round"/>
<path d="M377.05 326.324L373.951 334.395L367.006 333.762L363.616 328.389L371.172 324.436" stroke="#2A1E17" stroke-miterlimit="10" stroke-linecap="round" stroke-linejoin="round"/>
<path d="M390.241 326.475C391.063 326.098 391.472 325.227 391.153 324.529C390.834 323.831 389.908 323.57 389.086 323.946C388.263 324.322 387.855 325.193 388.174 325.892C388.492 326.59 389.418 326.851 390.241 326.475Z" stroke="#2A1E17" stroke-miterlimit="10" stroke-linecap="round" stroke-linejoin="round"/>
<path d="M351.986 70.7358L382.875 94.387C383.549 94.9056 384.523 94.7708 385.031 94.0861L389.696 87.7584C390.183 87.0945 390.059 86.1713 389.426 85.663L358.983 61.2857C358.298 60.7359 357.303 60.8811 356.795 61.5865L351.696 68.6404C351.198 69.2939 351.333 70.2275 351.986 70.7358Z" fill="white" stroke="#2A1E17" stroke-miterlimit="10" stroke-linecap="round" stroke-linejoin="round"/>
<path d="M354.277 69.6777L361.761 74.937L366.187 69.6569L358.692 63.4018L354.277 69.6777Z" fill="#FF6D66"/>
<path d="M364.58 76.9909L372.085 82.9452L376.107 77.9971L368.55 71.8665L364.58 76.9909Z" fill="#FAD8B0"/>
<path d="M374.604 85.2273L382.098 90.4866L385.664 85.9016L378.574 79.9577L374.604 85.2273Z" fill="#A0C6F4"/>
<path d="M413.609 37.6552L420.648 96.8454C420.803 98.1421 421.995 99.0653 423.281 98.889L435.201 97.2604C436.445 97.0944 437.326 95.9637 437.212 94.7189L431.438 35.2382C431.314 33.9104 430.091 32.9561 428.774 33.1532L415.6 35.0826C414.345 35.259 413.464 36.4 413.609 37.6552Z" fill="white" stroke="#2A1E17" stroke-miterlimit="10" stroke-linecap="round" stroke-linejoin="round"/>
<path d="M417.217 39.0452L419.445 52.8833L429.956 52.1053L428.805 37.1988L417.217 39.0452Z" fill="#FF6D66"/>
<path d="M420.202 58.1737L421.684 72.769L431.407 71.8976L430.06 57.0637L420.202 58.1737Z" fill="#91BA83"/>
<path d="M421.871 77.9867L424.099 91.8248L432.941 90.8497L431.874 76.7108L421.871 77.9867Z" fill="#FAD8B0"/>
<path d="M398.248 50.2588L417.735 107.592C418.067 108.578 419.145 109.096 420.119 108.744L432.33 104.345C433.273 104.003 433.771 102.986 433.47 102.032L415.164 44.1385C414.843 43.122 413.744 42.5825 412.749 42.956L399.357 47.9248C398.424 48.2671 397.926 49.3045 398.248 50.2588Z" fill="white" stroke="#2A1E17" stroke-miterlimit="10" stroke-linecap="round" stroke-linejoin="round"/>
<path d="M402.207 51.3065L407.266 64.3873L417.383 61.4309L413.164 47.0846L402.207 51.3065Z" fill="#A0C6F4"/>
<path d="M409.111 69.3976L413.589 83.3705L422.918 80.4971L418.523 66.2545L409.111 69.3976Z" fill="#F9865F"/>
<path d="M414.853 88.4327L419.912 101.503L428.36 98.7023L424.379 85.1028L414.853 88.4327Z" fill="#FAD8B0"/>
<path d="M251.367 147.374H152.955C149.814 147.374 147.275 144.822 147.275 141.689V128.37C147.275 125.227 149.825 122.685 152.955 122.685H251.367C254.507 122.685 257.047 125.237 257.047 128.37V141.689C257.057 144.822 254.507 147.374 251.367 147.374Z" fill="#7595EC"/>
<path d="M214.496 133.702H160.844C159.807 133.702 158.967 132.862 158.967 131.824C158.967 130.787 159.807 129.947 160.844 129.947H214.496C215.533 129.947 216.372 130.787 216.372 131.824C216.372 132.862 215.533 133.702 214.496 133.702Z" fill="white"/>
<path d="M159.506 138.577H250.714" stroke="#2A1E17" stroke-miterlimit="10" stroke-linecap="round" stroke-linejoin="round"/>
<path d="M114.395 77.9141L112.84 76.2129L107.699 80.912L109.254 82.6132C109.907 83.329 111.026 83.3808 111.742 82.7273L114.281 80.4037C114.996 79.7502 115.048 78.6402 114.395 77.9141Z" fill="#91BA83"/>
<path d="M105.429 66.908L112.747 74.9266C113.12 75.3415 113.099 75.9847 112.685 76.3581L107.626 80.9846C107.212 81.358 106.569 81.3373 106.196 80.9224L98.8778 72.9038C98.5046 72.4888 98.5253 71.8457 98.9399 71.4723L103.998 66.8458C104.403 66.4619 105.045 66.4931 105.429 66.908Z" stroke="#2A1E17" stroke-miterlimit="10" stroke-linecap="round" stroke-linejoin="round"/>
<path d="M91.2176 109.335H82.0233V117.737H91.2176V109.335Z" fill="#FF6D66"/>
<path d="M82.0233 103.93V109.335H76.5295" stroke="#2A1E17" stroke-miterlimit="10" stroke-linecap="round" stroke-linejoin="round"/>
<path d="M394.153 14.4501H384.959V22.8525H394.153V14.4501Z" fill="#FAD8B0"/>
<path d="M384.959 9.04555V14.4501H379.465" stroke="#2A1E17" stroke-miterlimit="10" stroke-linecap="round" stroke-linejoin="round"/>
<path d="M136.101 66.3893C40.768 26.8462 -32.6206 103.007 147.078 219.624C161.227 228.805 182.922 232.031 182.922 232.031" stroke="#2A1E17" stroke-miterlimit="10" stroke-linecap="round" stroke-linejoin="round"/>
<path d="M48.4178 71.7627C49.9177 71.7627 51.1336 70.5459 51.1336 69.0449C51.1336 67.5439 49.9177 66.3271 48.4178 66.3271C46.9179 66.3271 45.702 67.5439 45.702 69.0449C45.702 70.5459 46.9179 71.7627 48.4178 71.7627Z" fill="#2A1E17"/>
<path d="M31.128 54.1177L34.1029 51.2546L40.9339 55.1758L44.3753 65.7877L33.8749 61.3894L31.128 54.1177Z" stroke="#2A1E17" stroke-miterlimit="10" stroke-linecap="round" stroke-linejoin="round"/>
<path d="M34.1029 51.2546L31.128 54.1177L29.4591 52.0949L32.3097 49.3563L34.1029 51.2546Z" stroke="#2A1E17" stroke-miterlimit="10" stroke-linecap="round" stroke-linejoin="round"/>
<path d="M44.3753 65.7877L37.5443 58.2878" stroke="#2A1E17" stroke-miterlimit="10" stroke-linecap="round" stroke-linejoin="round"/>
<path d="M60.8981 256.221L68.3095 294.426C68.4754 295.267 69.2943 295.806 70.1235 295.63L77.8044 294.001C78.6026 293.835 79.1312 293.057 78.9861 292.248L72.3832 253.784C72.2381 252.923 71.3985 252.362 70.5485 252.549L62.059 254.437C61.2609 254.624 60.7426 255.412 60.8981 256.221Z" fill="white" stroke="#2A1E17" stroke-miterlimit="10" stroke-linecap="round" stroke-linejoin="round"/>
<path d="M63.3133 256.947L65.4175 265.858L72.2277 264.852L70.7765 255.194L63.3133 256.947Z" fill="#FF6D66"/>
<path d="M66.1742 269.271L67.8327 278.7L74.1246 277.673L72.5387 268.068L66.1742 269.271Z" fill="#FAD8B0"/>
<path d="M68.1955 282.092L70.3101 291.003L76.0215 289.935L74.6636 280.785L68.1955 282.092Z" fill="#A0C6F4"/>
<path d="M273.072 351.978L304.376 343.596L305.579 346.988L273.912 355.214L273.072 351.978Z" stroke="#2A1E17" stroke-miterlimit="10" stroke-linecap="round" stroke-linejoin="round"/>
<path d="M268.719 347.6L269.631 350.442" stroke="#2A1E17" stroke-miterlimit="10" stroke-linecap="round" stroke-linejoin="round"/>
<path d="M267.838 349.457L270.481 348.544" stroke="#2A1E17" stroke-miterlimit="10" stroke-linecap="round" stroke-linejoin="round"/>
<path d="M267.205 358.461L268.905 363.834" stroke="#2A1E17" stroke-miterlimit="10" stroke-linecap="round" stroke-linejoin="round"/>
<path d="M265.754 361.863L270.46 360.37" stroke="#2A1E17" stroke-miterlimit="10" stroke-linecap="round" stroke-linejoin="round"/>
<path d="M260.043 349.602L262.271 356.718" stroke="#2A1E17" stroke-miterlimit="10" stroke-linecap="round" stroke-linejoin="round"/>
<path d="M257.835 354.032L264.427 351.926" stroke="#2A1E17" stroke-miterlimit="10" stroke-linecap="round" stroke-linejoin="round"/>
<path d="M44.7484 11.5663L24.9397 2.61408L25.7586 0.352692L45.6917 9.53309L44.7484 11.5663Z" stroke="#2A1E17" stroke-width="0.6707" stroke-miterlimit="10" stroke-linecap="round" stroke-linejoin="round"/>
<path d="M45.1527 15.6949L45.8887 13.8277" stroke="#2A1E17" stroke-width="0.6707" stroke-miterlimit="10" stroke-linecap="round" stroke-linejoin="round"/>
<path d="M46.3966 15.1036L44.6344 14.4501" stroke="#2A1E17" stroke-width="0.6707" stroke-miterlimit="10" stroke-linecap="round" stroke-linejoin="round"/>
<path d="M50.5428 10.6949L51.9422 7.18872" stroke="#2A1E17" stroke-width="0.6707" stroke-miterlimit="10" stroke-linecap="round" stroke-linejoin="round"/>
<path d="M52.7403 9.54346L49.6721 8.31941" stroke="#2A1E17" stroke-width="0.6707" stroke-miterlimit="10" stroke-linecap="round" stroke-linejoin="round"/>
<path d="M50.5013 18.3401L52.3672 13.7032" stroke="#2A1E17" stroke-width="0.6707" stroke-miterlimit="10" stroke-linecap="round" stroke-linejoin="round"/>
<path d="M53.5281 16.9811L49.216 15.2695" stroke="#2A1E17" stroke-width="0.6707" stroke-miterlimit="10" stroke-linecap="round" stroke-linejoin="round"/>
<path d="M118.801 179.044C104.838 168.982 91.1139 153.339 97.126 137.281C97.126 137.281 106.756 130.86 122.003 138.889C137.251 146.918 137.251 146.918 137.251 146.918L118.801 179.044Z" fill="#FAD8B0"/>
<path d="M112.467 246.076C106.185 243.099 79.3489 229.126 74.5703 205.236C70.4448 184.604 86.2213 156.772 94.1199 144.48C93.612 160.797 109.99 174.604 117.888 180.299C125.891 186.066 131.778 188.888 139.895 191.938L112.467 246.076Z" fill="white"/>
<path d="M92.9279 149.335C94.6382 160.175 102.91 171.419 116.986 181.564C124.584 187.042 130.306 189.905 137.738 192.778L111.783 244.012C103.874 240.07 80.4684 226.73 76.1148 204.925C72.4765 186.813 84.7597 162.778 92.9279 149.335ZM97.1363 137.27C97.1363 137.27 67.4388 177.425 73.0569 205.537C78.6751 233.649 113.182 248.109 113.182 248.109L142.071 191.087C133.043 187.778 127.176 185.081 118.8 179.044C104.838 168.971 91.1139 153.339 97.1363 137.27Z" fill="#FAD8B0"/>
<path d="M89.3206 160.61C89.3206 160.61 91.0517 176.741 107.17 185.382" stroke="#2A1E17" stroke-miterlimit="10" stroke-linecap="round" stroke-linejoin="round"/>
<path d="M115.805 191.149L131.923 199.79" stroke="#2A1E17" stroke-miterlimit="10" stroke-linecap="round" stroke-linejoin="round"/>
<path d="M91.6218 183.66C91.6218 183.66 96.8046 195.185 113.504 202.674" stroke="#2A1E17" stroke-miterlimit="10" stroke-linecap="round" stroke-linejoin="round"/>
<path d="M78.3849 185.382C78.3849 185.382 78.9654 197.477 87.0195 201.512" stroke="#2A1E17" stroke-miterlimit="10" stroke-linecap="round" stroke-linejoin="round"/>
<path d="M96.8046 143.328C96.8046 143.328 95.312 158.868 118.8 179.044" stroke="#2A1E17" stroke-miterlimit="10" stroke-linecap="round" stroke-linejoin="round"/>
<path d="M105.439 146.202C105.439 146.202 112.923 145.621 123.859 153.691" stroke="#2A1E17" stroke-miterlimit="10" stroke-linecap="round" stroke-linejoin="round"/>
<path d="M70.2479 195.817C69.771 203.525 70.7247 231.46 111.151 249.271" stroke="#2A1E17" stroke-miterlimit="10" stroke-linecap="round" stroke-linejoin="round"/>
<path d="M328.383 180.278L311.239 214.666C311.239 214.666 322.869 218.95 313.778 232.29C313.778 232.29 335.276 241.211 349.343 218.037C363.409 194.863 328.383 180.278 328.383 180.278Z" fill="#91BA83"/>
<path d="M289.139 285.381C280.463 285.381 271.3 281.833 261.898 274.841L293.98 221.668L313.063 233.69L313.187 233.742C313.363 233.815 317.613 235.547 323.605 235.547C328.425 235.547 334.509 234.417 340.428 230.226L316.981 270.371C316.919 270.433 306.823 285.381 289.139 285.381Z" fill="white"/>
<path d="M294.488 223.815L312.109 234.925L312.327 235.07L312.565 235.174C312.752 235.257 317.282 237.103 323.584 237.103C327.264 237.103 331.638 236.481 336.137 234.468L315.675 269.499C315.001 270.474 305.506 283.835 289.129 283.835C281.137 283.835 272.678 280.671 263.961 274.427L294.488 223.815ZM349.332 218.047C341.382 231.139 331.068 233.981 323.594 233.981C317.841 233.981 313.768 232.29 313.768 232.29L293.461 219.489L259.846 275.225C271.103 283.908 280.919 286.926 289.139 286.926C307.922 286.926 318.318 271.138 318.318 271.138L349.332 218.047Z" fill="#96BD89"/>
<path d="M311.239 214.666C311.239 214.666 324.03 219.189 313.778 232.29" stroke="#2A1E17" stroke-miterlimit="10" stroke-linecap="round" stroke-linejoin="round"/>
<path d="M293.068 218.296C293.068 218.296 310.492 234.261 320.132 234.157C329.772 234.054 341.081 231.751 347.757 220.236" stroke="#2A1E17" stroke-miterlimit="10" stroke-linecap="round" stroke-linejoin="round"/>
<path d="M295.203 238.96C295.203 238.96 307.165 249.582 320.526 246.17" stroke="#2A1E17" stroke-miterlimit="10" stroke-linecap="round" stroke-linejoin="round"/>
<path d="M307.766 254.842C307.766 254.842 314.037 259.551 322.807 255.101" stroke="#2A1E17" stroke-miterlimit="10" stroke-linecap="round" stroke-linejoin="round"/>
<path d="M278.908 261.387C278.908 261.387 293.378 275.796 316.173 266.294" stroke="#2A1E17" stroke-miterlimit="10" stroke-linecap="round" stroke-linejoin="round"/>
<path d="M286.786 247.331C286.786 247.331 292.694 251.553 296.395 252.902" stroke="#2A1E17" stroke-miterlimit="10" stroke-linecap="round" stroke-linejoin="round"/>
<path d="M331.327 190.257C331.327 190.257 344.543 194.583 346.129 212.031" stroke="#2A1E17" stroke-miterlimit="10" stroke-linecap="round" stroke-linejoin="round"/>
<path d="M337.972 211.823C337.972 211.823 344.056 221.242 333.773 230.672" stroke="#2A1E17" stroke-miterlimit="10" stroke-linecap="round" stroke-linejoin="round"/>
<path d="M261.069 277.86C261.069 277.86 294.249 306.304 318.339 273.047" stroke="#2A1E17" stroke-miterlimit="10" stroke-linecap="round" stroke-linejoin="round"/>
<path d="M21.5398 169.542H29.2726" stroke="#FF6D66" stroke-miterlimit="10" stroke-linecap="round" stroke-linejoin="round"/>
<path d="M452.491 76.4203H460.224" stroke="#FF6D66" stroke-miterlimit="10" stroke-linecap="round" stroke-linejoin="round"/>
<path d="M245.023 23.3089H252.766" stroke="#FAD8B0" stroke-miterlimit="10"/>
<path d="M467.262 116.576L474.87 117.945" stroke="#FAD8B0" stroke-miterlimit="10"/>
<path d="M163.362 309.758H171.105" stroke="#A0C6F4" stroke-miterlimit="10" stroke-linecap="round" stroke-linejoin="round"/>
<path d="M483.93 215.807C485.344 215.807 486.49 214.66 486.49 213.245C486.49 211.83 485.344 210.682 483.93 210.682C482.516 210.682 481.37 211.83 481.37 213.245C481.37 214.66 482.516 215.807 483.93 215.807Z" fill="#91BA83"/>
<path d="M2.56031 92.7583C3.97433 92.7583 5.12062 91.6112 5.12062 90.1961C5.12062 88.781 3.97433 87.6339 2.56031 87.6339C1.14629 87.6339 0 88.781 0 90.1961C0 91.6112 1.14629 92.7583 2.56031 92.7583Z" fill="#91BA83"/>
</svg>
