<svg width="405" height="302" viewBox="0 0 405 302" fill="none" xmlns="http://www.w3.org/2000/svg">
<g id="Illustration" clip-path="url(#clip0_339_1505)">
<path id="Rectangle" d="M29.3231 261.736C29.3231 173.37 100.958 101.736 189.323 101.736H317.739C365.932 101.736 405 140.804 405 188.997C405 237.19 365.932 276.258 317.739 276.258H29.3231V261.736Z" fill="#FEEBD2"/>
<g id="Group 13">
<path id="Rectangle_2" d="M81.2103 181.966C81.2103 163.694 66.3977 148.881 48.1255 148.881H27.2614C18.1253 148.881 10.719 156.288 10.719 165.424V165.424C10.719 174.56 18.1253 181.966 27.2614 181.966H81.2103V181.966Z" stroke="#18233D" stroke-width="0.8" stroke-linecap="round"/>
<g id="Group 3">
<path id="Oval" fill-rule="evenodd" clip-rule="evenodd" d="M60.6631 168.732C58.9335 168.732 57.5313 167.436 57.5313 165.837C57.5313 164.238 58.9335 162.942 60.6631 162.942C62.3927 162.942 63.7948 164.238 63.7948 165.837C63.7948 167.436 62.3927 168.732 60.6631 168.732Z" fill="#18233D"/>
<path id="Oval_2" fill-rule="evenodd" clip-rule="evenodd" d="M46.7939 168.732C45.0643 168.732 43.6622 167.436 43.6622 165.837C43.6622 164.238 45.0643 162.942 46.7939 162.942C48.5235 162.942 49.9257 164.238 49.9257 165.837C49.9257 167.436 48.5235 168.732 46.7939 168.732Z" fill="#18233D"/>
<path id="Oval_3" fill-rule="evenodd" clip-rule="evenodd" d="M32.9248 168.732C31.1952 168.732 29.7931 167.436 29.7931 165.837C29.7931 164.238 31.1952 162.942 32.9248 162.942C34.6545 162.942 36.0566 164.238 36.0566 165.837C36.0566 167.436 34.6545 168.732 32.9248 168.732Z" fill="#18233D"/>
</g>
</g>
<path id="Rectangle_3" d="M130.499 75.2679C130.499 42.3779 103.836 15.7153 70.9462 15.7153H32.5614C16.1164 15.7153 2.78514 29.0466 2.78514 45.4916C2.78514 61.9366 16.1164 75.2679 32.5614 75.2679H130.499Z" fill="#FEEBD2"/>
<g id="Mobile">
<path id="Rectangle_4" fill-rule="evenodd" clip-rule="evenodd" d="M243.722 18.9056C243.732 13.9428 247.759 9.92529 252.722 9.92529H347.059C352.037 9.92529 356.07 13.9667 356.059 18.945L355.634 213.514C355.623 218.477 351.597 222.495 346.634 222.495H252.296C247.318 222.495 243.286 218.453 243.296 213.475L243.722 18.9056Z" fill="#18233D"/>
<rect id="Rectangle_5" x="349.436" y="31.4304" width="3.31724" height="44.6644" rx="1.65862" fill="#2760CB"/>
<rect id="Rectangle_6" x="350.266" y="31.4304" width="3.31724" height="44.6644" rx="1.65862" fill="white"/>
<path id="Rectangle_7" d="M235.928 18.9067C235.939 14.2196 239.741 10.4253 244.428 10.4253H338.766C343.468 10.4253 347.276 14.2422 347.266 18.9439L346.841 213.513C346.831 218.201 343.028 221.995 338.341 221.995H244.003C239.302 221.995 235.493 218.178 235.503 213.476L235.928 18.9067Z" fill="white" stroke="#18233D" stroke-linecap="round"/>
<g id="Oval_4">
<path id="Mask" fill-rule="evenodd" clip-rule="evenodd" d="M289.726 219.186C292.932 219.186 295.531 216.594 295.531 213.397C295.531 210.199 292.932 207.607 289.726 207.607C286.52 207.607 283.921 210.199 283.921 213.397C283.921 216.594 286.52 219.186 289.726 219.186Z" fill="#2760CB"/>
<mask id="mask0_339_1505" style="mask-type:luminance" maskUnits="userSpaceOnUse" x="283" y="207" width="13" height="13">
<path id="Mask_2" fill-rule="evenodd" clip-rule="evenodd" d="M289.726 219.186C292.932 219.186 295.531 216.594 295.531 213.397C295.531 210.199 292.932 207.607 289.726 207.607C286.52 207.607 283.921 210.199 283.921 213.397C283.921 216.594 286.52 219.186 289.726 219.186Z" fill="white"/>
</mask>
<g mask="url(#mask0_339_1505)">
<path id="Oval_5" fill-rule="evenodd" clip-rule="evenodd" d="M291.385 219.186C294.591 219.186 297.19 216.594 297.19 213.397C297.19 210.199 294.591 207.607 291.385 207.607C288.179 207.607 285.579 210.199 285.579 213.397C285.579 216.594 288.179 219.186 291.385 219.186Z" fill="white"/>
</g>
</g>
<g id="Rectangle + Rectangle + Rectangle + Rectangle Mask">
<path id="Mask_3" fill-rule="evenodd" clip-rule="evenodd" d="M238.314 19.2489C238.307 15.9288 240.997 13.2336 244.317 13.2336H270.733C272.146 13.2336 273.394 14.1546 273.81 15.5048C274.227 16.8549 275.475 17.7759 276.888 17.7759H302.712C304.548 17.7759 306.283 16.9399 307.427 15.5048C308.571 14.0696 310.306 13.2336 312.142 13.2336L335.646 13.2336C340.297 13.2336 344.071 16.9988 344.08 21.6498L344.449 195.279C344.459 200.257 340.427 204.298 335.449 204.298H247.688C242.725 204.298 238.698 200.28 238.688 195.317L238.314 19.2489Z" fill="#D7E3FF"/>
<mask id="mask1_339_1505" style="mask-type:luminance" maskUnits="userSpaceOnUse" x="238" y="13" width="107" height="192">
<path id="Mask_4" fill-rule="evenodd" clip-rule="evenodd" d="M238.314 19.2489C238.307 15.9288 240.997 13.2336 244.317 13.2336H270.733C272.146 13.2336 273.394 14.1546 273.81 15.5048C274.227 16.8549 275.475 17.7759 276.888 17.7759H302.712C304.548 17.7759 306.283 16.9399 307.427 15.5048C308.571 14.0696 310.306 13.2336 312.142 13.2336L335.646 13.2336C340.297 13.2336 344.071 16.9988 344.08 21.6498L344.449 195.279C344.459 200.257 340.427 204.298 335.449 204.298H247.688C242.725 204.298 238.698 200.28 238.688 195.317L238.314 19.2489Z" fill="white"/>
</mask>
<g mask="url(#mask1_339_1505)">
<path id="Rectangle_8" fill-rule="evenodd" clip-rule="evenodd" d="M242.55 98.4644C242.55 95.7029 244.788 93.4644 247.55 93.4644H335.408C338.17 93.4644 340.408 95.7029 340.408 98.4644V131.475C340.408 134.236 338.17 136.475 335.408 136.475H247.55C244.788 136.475 242.55 134.236 242.55 131.475V98.4644Z" stroke="#18233D" stroke-width="0.8" stroke-linecap="round"/>
<g id="Group 2">
<path id="Path 96" d="M294.306 107.112H270.838" stroke="#18233D" stroke-linecap="round"/>
<path id="Path 96_2" d="M294.306 115.383H254.252" stroke="#18233D" stroke-linecap="round"/>
<path id="Path 96_3" d="M294.306 123.654H286.012" stroke="#18233D" stroke-linecap="round"/>
<path id="Oval_6" fill-rule="evenodd" clip-rule="evenodd" d="M316.404 127.376C309.534 127.376 303.964 121.822 303.964 114.97C303.964 108.117 309.534 102.563 316.404 102.563C323.274 102.563 328.844 108.117 328.844 114.97C328.844 121.822 323.274 127.376 316.404 127.376Z" fill="white"/>
</g>
<path id="Rectangle_9" fill-rule="evenodd" clip-rule="evenodd" d="M242.55 44.7017C242.55 41.9402 244.788 39.7017 247.55 39.7017H335.408C338.17 39.7017 340.408 41.9402 340.408 44.7017V77.7118C340.408 80.4733 338.17 82.7118 335.408 82.7118H247.55C244.788 82.7118 242.55 80.4733 242.55 77.7118V44.7017Z" stroke="#18233D" stroke-width="0.8" stroke-linecap="round"/>
<path id="Rectangle_10" fill-rule="evenodd" clip-rule="evenodd" d="M242.55 152.227C242.55 149.466 244.788 147.227 247.55 147.227H335.408C338.17 147.227 340.408 149.466 340.408 152.227V185.237C340.408 187.999 338.17 190.237 335.408 190.237H247.55C244.788 190.237 242.55 187.999 242.55 185.237V152.227Z" stroke="#18233D" stroke-width="0.8" stroke-linecap="round"/>
<g id="Group 2_2">
<path id="Path 96_4" d="M294.306 160.875H270.838" stroke="#18233D" stroke-linecap="round"/>
<path id="Path 96_5" d="M294.306 169.146H254.252" stroke="#18233D" stroke-linecap="round"/>
<path id="Path 96_6" d="M294.306 177.417H286.012" stroke="#18233D" stroke-linecap="round"/>
<path id="Oval_7" fill-rule="evenodd" clip-rule="evenodd" d="M316.404 181.139C309.534 181.139 303.964 175.584 303.964 168.732C303.964 161.88 309.534 156.325 316.404 156.325C323.274 156.325 328.844 161.88 328.844 168.732C328.844 175.584 323.274 181.139 316.404 181.139Z" fill="white"/>
</g>
</g>
</g>
<rect id="Rectangle_11" x="283.092" y="14.061" width="18.2448" height="0.827434" rx="0.413717" fill="#19243D"/>
<path id="Oval_8" fill-rule="evenodd" clip-rule="evenodd" d="M278.53 15.7159C279.217 15.7159 279.774 15.1603 279.774 14.4748C279.774 13.7893 279.217 13.2336 278.53 13.2336C277.843 13.2336 277.286 13.7893 277.286 14.4748C277.286 15.1603 277.843 15.7159 278.53 15.7159Z" fill="#19243D"/>
<path id="Path 106" d="M350.266 53.7631H353.583" stroke="#85B0FF" stroke-width="1.8"/>
</g>
<rect id="Rectangle_12" x="71.9471" y="46.6458" width="263.062" height="79.5763" rx="7.5" fill="white" stroke="#18233D" stroke-linecap="round"/>
<path id="Path 96_7" d="M163.028 69.8917H186.495" stroke="#18233D" stroke-linecap="round"/>
<path id="Path 96_8" d="M163.028 78.163H203.082" stroke="#18233D" stroke-linecap="round"/>
<path id="Path 96_9" d="M163.028 86.434H171.321" stroke="#18233D" stroke-linecap="round"/>
<path id="Path 96_10" d="M163.028 94.7052H203.082" stroke="#18233D" stroke-linecap="round"/>
<path id="Path 96_11" d="M163.028 102.976H196.2" stroke="#18233D" stroke-linecap="round"/>
<path id="Path 229" d="M239.347 91.9303L254.182 119.725L311.745 69.4305" stroke="#0ACC94" stroke-width="10"/>
<g id="Group 11">
<path id="Path 153" fill-rule="evenodd" clip-rule="evenodd" d="M82.4112 95.7748C81.8865 89.6802 84.546 83.6834 90.2616 81.5038C95.2246 79.6112 102.229 77.8389 111.056 77.8389C121.092 77.8389 130.148 80.1303 136.444 82.2845C142.195 84.2521 145.78 89.6458 146.343 95.6976L147.439 107.491H83.4199L82.4112 95.7748Z" fill="#85A9FF"/>
<g id="Group 8">
<g id="Group">
<path id="Oval_9" fill-rule="evenodd" clip-rule="evenodd" d="M117.733 24.5935C124.505 24.5935 129.994 19.088 129.994 12.2967C129.994 5.50543 124.505 0 117.733 0C110.962 0 105.472 5.50543 105.472 12.2967C105.472 19.088 110.962 24.5935 117.733 24.5935Z" fill="#18233D"/>
<path id="Oval_10" fill-rule="evenodd" clip-rule="evenodd" d="M116.238 33.5909C121.523 33.5909 125.808 29.294 125.808 23.9934C125.808 18.6929 121.523 14.396 116.238 14.396C110.953 14.396 106.668 18.6929 106.668 23.9934C106.668 29.294 110.953 33.5909 116.238 33.5909Z" fill="#E5E9F3"/>
<path id="Path 103" fill-rule="evenodd" clip-rule="evenodd" d="M102.194 52.1215C102.194 52.1215 104.418 60.4913 103.306 68.7746C102.194 77.0578 100.661 78.9881 98.295 79.9995L111.055 102.573L124.611 79.3997C124.611 79.3997 117.921 78.9356 117.921 69.4987C117.921 60.0617 119.254 48.5872 119.254 48.5872L102.194 52.1215Z" fill="#FFD1AB"/>
<path id="Path 157" fill-rule="evenodd" clip-rule="evenodd" d="M101.769 85.9363C101.769 85.9363 108.612 90.9529 120.946 85.9363L111.056 102.573L101.769 85.9363Z" fill="#D7E3FF"/>
<path id="Path 105" fill-rule="evenodd" clip-rule="evenodd" d="M97.2808 49.169C92.6533 42.0058 90.7239 26.5785 100.8 23.6021C111.557 10.8327 126.079 16.2696 128.996 27.1207C131.914 37.9718 128.305 51.2675 119.861 53.1073C111.416 54.9471 101.908 56.3322 97.2808 49.169Z" fill="#18233D"/>
<path id="Path" fill-rule="evenodd" clip-rule="evenodd" d="M118.715 55.406C118.56 56.6394 118.372 59.4304 118.062 64.3591C117.671 70.5642 118.319 73.3122 118.319 73.3122C118.319 73.3122 105.157 67.3565 103.621 63.9053C103.692 61.5147 103.617 59.3408 103.396 57.3837L118.715 55.406Z" fill="#CF8B54"/>
<path id="Path_2" fill-rule="evenodd" clip-rule="evenodd" d="M98.3052 41.0665C101.071 39.4571 103.378 35.9656 105.226 30.592C104.148 35.9016 115.896 41.2378 124.661 42.1909C124.95 42.1036 125.255 42.0568 125.571 42.0568C127.353 42.0568 128.798 43.5458 128.798 45.3825C128.798 47.2192 127.353 48.7082 125.571 48.7082C124.74 48.7082 123.983 48.3845 123.411 47.8528C120.797 55.6503 115.299 65.6583 109.123 64.7218C104.658 64.0448 101.155 58.3449 98.6128 47.6221C98.3937 47.6705 98.1663 47.696 97.9332 47.696C96.1511 47.696 94.7064 46.207 94.7064 44.3703C94.7064 42.5336 96.1511 41.0446 97.9332 41.0446C98.059 41.0446 98.1831 41.0521 98.3052 41.0665Z" fill="#FFD1AB"/>
<path id="Path 104" d="M109.843 43.481C110.476 45.8876 108.05 52.2716 108.05 52.2716L110.599 53.1788" stroke="#18233D" stroke-linecap="round"/>
<path id="Path 109" d="M113.433 40.7702C113.433 40.7702 116.254 39.4168 119.158 41.2864" stroke="#18233D" stroke-linecap="round"/>
<path id="Path 109_2" d="M101.902 41.0575C101.902 41.0575 104.566 39.4159 107.649 40.9708" stroke="#18233D" stroke-linecap="round"/>
<path id="Oval_11" fill-rule="evenodd" clip-rule="evenodd" d="M115.939 44.3888C116.434 44.3888 116.836 43.9858 116.836 43.4887C116.836 42.9916 116.434 42.5886 115.939 42.5886C115.443 42.5886 115.042 42.9916 115.042 43.4887C115.042 43.9858 115.443 44.3888 115.939 44.3888Z" fill="#18233D"/>
<path id="Oval_12" fill-rule="evenodd" clip-rule="evenodd" d="M105.173 44.3888C105.669 44.3888 106.07 43.9858 106.07 43.4887C106.07 42.9916 105.669 42.5886 105.173 42.5886C104.678 42.5886 104.276 42.9916 104.276 43.4887C104.276 43.9858 104.678 44.3888 105.173 44.3888Z" fill="#18233D"/>
<path id="Path 110" fill-rule="evenodd" clip-rule="evenodd" d="M107.266 55.6005L112.74 55.1853C112.74 55.1853 111.963 57.9478 110.003 57.9478C108.044 57.9478 107.266 55.6005 107.266 55.6005Z" fill="white"/>
<path id="Path 107" d="M124.611 46.188L126.406 45.5879" stroke="#18233D" stroke-linecap="round"/>
<path id="Path 107_2" d="M98.295 44.9883L96.5007 44.3882" stroke="#18233D" stroke-linecap="round"/>
<path id="Path 108" d="M108.463 28.7922C108.463 28.7922 113.223 37.0799 123.415 38.9895" stroke="white" stroke-linecap="round"/>
</g>
</g>
<path id="Path 154" d="M102.428 73.3123L100.378 74.7694C98.6022 76.0318 97.844 78.2964 98.502 80.3738L101.31 89.2387C102.552 93.1601 106.191 95.8248 110.305 95.8248V95.8248C114.502 95.8248 118.195 93.0521 119.365 89.0213L121.956 80.099C122.52 78.1593 121.846 76.0719 120.256 74.8272L118.319 73.3123" stroke="#18233D" stroke-linecap="round"/>
<path id="Path 155" d="M110.599 95.8247V95.8247C110.599 100.822 114.65 104.873 119.647 104.873H120.296C125.652 104.873 129.994 100.532 129.994 95.1757V66.2674C129.994 63.6186 132.141 61.4714 134.79 61.4714V61.4714" stroke="#18233D" stroke-linecap="round"/>
<path id="Path 156" fill-rule="evenodd" clip-rule="evenodd" d="M107.001 94.2185L106.51 96.1735L109.472 97.1587L110.658 100.111L112.339 99.5704L111.998 96.9135L114.127 96.1735L113.505 94.2185C113.505 94.2185 111.752 94.7323 110.143 94.7323C108.535 94.7323 107.001 94.2185 107.001 94.2185Z" fill="#4385FF"/>
<path id="Path 158" fill-rule="evenodd" clip-rule="evenodd" d="M134.083 61.4715L139.48 57.0164V66.1266L134.083 61.4715Z" fill="#4385FF"/>
<rect id="Rectangle_13" x="138.75" y="56.0149" width="0.72968" height="10.912" rx="0.36484" fill="#18233D"/>
</g>
<g id="Group 4">
<g id="Group 26">
<g id="Group 3_2">
<path id="Oval_13" fill-rule="evenodd" clip-rule="evenodd" d="M232.162 167.643C201.857 159.544 183.969 128.119 192.207 97.4525C200.446 66.7863 231.692 48.4918 261.997 56.5906C292.302 64.6893 310.19 96.1145 301.951 126.781C293.713 157.447 262.467 175.741 232.162 167.643Z" fill="#2760CB"/>
<path id="Oval_14" fill-rule="evenodd" clip-rule="evenodd" d="M228.844 160.198C198.539 152.1 180.651 120.675 188.89 90.0084C197.129 59.3422 228.374 41.0477 258.679 49.1465C288.984 57.2452 306.873 88.6704 298.634 119.337C290.395 150.003 259.149 168.297 228.844 160.198Z" fill="white"/>
<g id="$">
<path id="Mask_5" fill-rule="evenodd" clip-rule="evenodd" d="M231.735 152.232C206.058 145.37 190.849 118.941 197.764 93.2014C204.679 67.4617 231.1 52.1582 256.777 59.0201C282.454 65.8819 297.663 92.3108 290.748 118.05C283.833 143.79 257.412 159.094 231.735 152.232Z" stroke="#19243D"/>
<mask id="mask2_339_1505" style="mask-type:luminance" maskUnits="userSpaceOnUse" x="195" y="56" width="98" height="99">
<path id="Mask_6" fill-rule="evenodd" clip-rule="evenodd" d="M231.735 152.232C206.058 145.37 190.849 118.941 197.764 93.2014C204.679 67.4617 231.1 52.1582 256.777 59.0201C282.454 65.8819 297.663 92.3108 290.748 118.05C283.833 143.79 257.412 159.094 231.735 152.232Z" fill="white" stroke="white"/>
</mask>
<g mask="url(#mask2_339_1505)">
<path id="Path 229_2" d="M220.636 88.6507L235.955 116.183L292.629 64.8942" stroke="#0ACC94" stroke-width="16"/>
</g>
</g>
</g>
<g id="Group 25">
<rect id="Rectangle_14" width="11.6483" height="41.0153" rx="2" transform="matrix(-0.788425 -0.614358 -0.616966 0.787595 216.182 158.365)" fill="#D7E3FF"/>
<rect id="Rectangle_15" width="17.4724" height="117.513" rx="5" transform="matrix(-0.788425 -0.614358 -0.616966 0.787595 207.731 173.961)" fill="#19243D"/>
</g>
</g>
<g id="Group_2">
<path id="Path 88" fill-rule="evenodd" clip-rule="evenodd" d="M69.5443 240.482L120.399 200.927L145.019 182.642C153.649 176.232 164.746 174.143 175.115 176.976L182.744 179.061L209.259 172.26C213.59 171.149 217.891 174.163 218.326 178.613C218.581 181.223 217.414 183.768 215.271 185.28L204.925 192.579C211.391 195.694 212.287 204.538 206.578 208.888L201.334 212.885C206.311 215.963 206.598 223.097 201.885 226.567L194.277 232.167C195.244 237.06 192.773 241.987 188.273 244.14L182.244 247.023C179.666 248.256 176.849 248.908 173.991 248.934L131.035 249.32L96.8041 287.924L69.5443 240.482Z" fill="#FFB391"/>
<path id="Path 95" fill-rule="evenodd" clip-rule="evenodd" d="M164.166 186.088L155.649 190.602L157.571 187.298C159.856 183.369 163.906 180.793 168.432 180.39L182.324 179.152L164.166 186.088Z" fill="#FF9B6F"/>
<path id="Path 89" d="M182.324 179.152L163.821 186.517" stroke="#18233D" stroke-linecap="round"/>
<path id="Path 90" fill-rule="evenodd" clip-rule="evenodd" d="M171.941 183.887L169.253 183.794C166.906 183.712 164.642 184.665 163.061 186.401L162.337 187.194L171.941 183.887Z" fill="#18233D"/>
<path id="Path 91" d="M205.218 192.328L190.359 199.821" stroke="#18233D" stroke-linecap="round"/>
<path id="Path 92" d="M201.589 212.591L194.379 216.278" stroke="#18233D" stroke-linecap="round"/>
<path id="Path 92_2" d="M195.095 231.298L187.886 234.985" stroke="#18233D" stroke-linecap="round"/>
<path id="Path_3" fill-rule="evenodd" clip-rule="evenodd" d="M1.60049e-05 294.553L89.8484 222.495C89.8484 222.495 118.141 242.465 118.968 267.238L99.9084 294.553L1.60049e-05 294.553Z" fill="#D7E3FF"/>
</g>
</g>
</g>
<defs>
<clipPath id="clip0_339_1505">
<rect width="405" height="302" fill="white"/>
</clipPath>
</defs>
</svg>
