<svg width="141" height="40" viewBox="0 0 141 40" fill="none" xmlns="http://www.w3.org/2000/svg">
<path d="M95.413 21.5188C98.2467 19.0495 100.696 16.9126 103.15 14.779C103.753 14.2538 104.326 13.6839 104.977 13.2293C106.382 12.246 107.951 12.4492 108.875 13.6666C109.773 14.8496 109.666 16.2944 108.405 17.4309C106.626 19.034 104.733 20.508 102.912 22.0647C101.268 23.4716 101.119 23.1547 102.54 24.9611C104.107 26.9534 105.692 28.9302 107.224 30.9484C108.798 33.0234 108.217 35.1138 105.838 36.1246C104.436 36.7204 103.5 36.4828 102.363 35.1138C100.658 33.063 99.011 30.9639 97.3145 28.9061C96.2248 27.5854 95.0723 27.8127 94.5266 29.4692C94.3216 30.096 94.3046 30.7848 94.2012 31.446C94.0555 32.3707 94.0046 33.3247 93.7436 34.2132C93.2894 35.7579 91.4353 36.7687 89.9473 36.3984C88.4983 36.0368 87.7136 34.7367 87.9356 32.9596C88.8067 25.9891 89.6999 19.0203 90.571 12.0497C90.771 10.4569 90.8913 8.85371 91.0964 7.26088C91.3506 5.28578 92.5403 3.99946 94.1724 3.86171C96.0519 3.70328 97.3925 4.99993 97.1925 6.91993C96.8603 10.1142 96.4451 13.2999 96.057 16.4889C95.8723 18.0129 95.6706 19.5334 95.4164 21.5206L95.413 21.5188Z" fill="white"/>
<path d="M61.616 22.9913C61.5465 30.9296 55.4419 37.0219 47.7205 36.8652C41.882 36.7464 37.6146 32.4794 37.4434 26.5868C37.2655 20.4979 41.1245 14.793 46.8104 12.8488C49.2458 12.0154 51.7643 11.9241 54.2437 12.6078C58.8857 13.8855 61.6618 17.8563 61.616 22.9913ZM43.6056 25.3538C43.265 29.4848 46.8426 32.3657 51.0067 30.7505C54.3098 29.4693 56.3876 25.0663 55.3352 21.6309C54.5454 19.0566 52.8235 17.8133 50.161 17.8994C46.5613 18.0148 43.692 21.2779 43.6056 25.3538Z" fill="white"/>
<path d="M63.0713 26.0411C63.0459 19.7317 67.0133 14.6864 72.3044 12.8835C76.5448 11.4387 81.5223 12.0035 84.7051 15.7109C87.0236 18.4127 87.3574 21.5691 87.0304 24.9338C86.3219 32.2333 78.8819 37.9588 71.7384 36.7535C66.4049 35.8546 62.8171 31.5497 63.0713 26.0393V26.0411ZM69.1098 25.4263C69.0267 29.9172 72.7451 32.4416 76.782 30.6336C80.0089 29.1888 81.9053 24.97 80.8631 21.557C80.1496 19.222 78.4209 17.9151 76.0228 17.8961C72.2417 17.8651 69.1877 21.192 69.1098 25.428V25.4263Z" fill="white"/>
<path d="M6.23047 23.0415C9.18616 24.4828 11.8368 25.7984 14.5078 27.071C16.4754 28.0077 18.4498 28.9324 20.4581 29.7745C21.3004 30.1292 22.2241 30.3065 23.1274 30.4822C25.151 30.8765 26.7559 30.403 27.7202 28.3332C28.3761 26.928 29.6235 26.2995 31.1572 26.4751C32.6792 26.6491 33.9977 27.3155 34.6282 28.7878C34.8891 29.3973 34.8891 30.2411 34.7163 30.9006C33.8113 34.379 31.542 36.6589 28.3253 38.0589C18.8837 42.1692 8.57943 36.5745 6.6745 26.2875C6.49485 25.3197 6.40503 24.3347 6.23047 23.0381V23.0415Z" fill="white"/>
<path d="M12.4023 5.84567C18.1239 1.11024 24.0675 -1.26781 31.0686 0.684911C36.2597 2.13309 39.3035 6.19695 39.2696 11.1735C39.2527 13.5085 38.1308 15.0049 36.1106 15.3837C34.248 15.7333 32.4126 14.583 31.7601 12.446C31.0737 10.1971 29.6569 8.71448 27.4842 8.11523C25.2691 7.50393 23.0015 7.03728 20.7288 6.69805C18.7069 6.3967 16.6461 6.36571 14.6056 6.19179C14.0209 6.14185 13.4412 6.0127 12.4023 5.84739V5.84567Z" fill="white"/>
<path d="M118.276 14.7018C120.218 12.9971 122.338 12.1757 124.76 12.2015C126.036 12.2153 127.104 12.6337 127.704 13.8701C128.279 15.0531 127.879 16.1431 127.172 17.0489C126.336 18.1199 125.206 18.5143 123.806 18.1131C120.75 17.2366 118.669 18.3386 117.707 21.4279C117.293 22.7538 117.144 24.1744 116.961 25.5623C116.629 28.085 116.364 30.6163 116.063 33.1425C115.891 34.582 115.222 35.6514 113.839 36.2024C111.807 37.0117 109.963 35.8494 110.039 33.647C110.109 31.6426 110.387 29.6434 110.629 27.6494C111.105 23.7284 111.612 19.8092 112.124 15.8917C112.404 13.753 113.776 12.5321 115.68 12.6234C116.986 12.6871 117.688 13.5016 118.278 14.7018H118.276Z" fill="white"/>
<path d="M19.3389 16.3723C19.244 16.343 18.7305 16.2208 18.2508 16.0193C13.3784 13.9805 8.51266 11.9313 3.64526 9.88216C3.46392 9.8064 3.21818 9.76679 3.11988 9.62731C2.9182 9.33974 2.60128 8.90408 2.69449 8.69572C2.81143 8.43398 3.27919 8.25662 3.62154 8.19807C3.9249 8.14641 4.27064 8.28762 4.58756 8.37544C9.4753 9.73924 14.363 11.0996 19.244 12.4858C19.8067 12.6459 20.3693 12.8956 20.8608 13.2142C21.5879 13.686 21.9641 14.3972 21.6421 15.2788C21.332 16.1329 20.671 16.51 19.3372 16.3706L19.3389 16.3723Z" fill="white"/>
<path d="M17.103 23.5683C16.8268 23.4736 16.3827 23.3514 15.9608 23.174C11.1476 21.1558 6.33103 19.1411 1.53311 17.0885C0.865372 16.8027 -0.290466 16.6029 0.0671319 15.5887C0.412866 14.6072 1.42973 15.1014 2.15001 15.3252C7.06487 16.8612 11.9712 18.4231 16.8759 19.9918C17.3725 20.1502 17.8572 20.3792 18.3063 20.6444C19.0181 21.068 19.269 21.7086 19.013 22.5283C18.7402 23.3996 18.0504 23.5408 17.1064 23.5666L17.103 23.5683Z" fill="white"/>
<path d="M139.638 7.9896C139.316 8.70422 139.027 9.43778 138.662 10.13C138.245 10.9221 137.877 10.9152 137.445 10.1248C137.049 9.39989 136.698 8.64911 136.037 8.01543C136.037 8.73177 136.066 9.44811 136.017 10.161C136.003 10.347 135.745 10.5157 135.6 10.6931C135.427 10.5381 135.11 10.3849 135.106 10.2264C135.068 8.68528 135.066 7.14411 135.103 5.60294C135.106 5.43419 135.439 5.11734 135.569 5.14145C135.847 5.19311 136.215 5.36014 136.33 5.59089C136.861 6.65162 137.318 7.74852 138.003 9.28108C138.518 8.21518 138.864 7.4885 139.218 6.76527C139.45 6.29001 139.618 5.7562 139.947 5.36014C140.315 4.91587 140.903 4.93654 140.943 5.59089C141.04 7.12689 140.994 8.6715 140.959 10.2127C140.955 10.378 140.635 10.5347 140.464 10.6965C140.311 10.5278 140.04 10.3676 140.028 10.1886C139.979 9.45672 140.008 8.72144 140.008 7.98615C139.886 7.98788 139.764 7.9896 139.642 7.99132L139.638 7.9896Z" fill="white"/>
<path d="M132.423 5.09303C132.752 5.09303 133.087 5.04826 133.404 5.1068C133.689 5.15846 133.952 5.3255 134.225 5.44259C133.991 5.59068 133.755 5.86447 133.521 5.86275C132.876 5.85931 132.772 6.19681 132.779 6.73407C132.794 7.86196 132.798 8.99158 132.759 10.1195C132.752 10.3106 132.506 10.4931 132.371 10.6791C132.164 10.4914 131.789 10.3141 131.777 10.1143C131.715 9.05529 131.789 7.98767 131.713 6.9321C131.688 6.57565 131.405 6.20198 131.157 5.90752C130.954 5.66645 130.628 5.53385 130.355 5.35305C130.652 5.26695 130.944 5.1378 131.245 5.10336C131.635 5.06031 132.032 5.09303 132.425 5.09303H132.423Z" fill="white"/>
</svg>
