<svg width="121" height="78" viewBox="0 0 121 78" fill="none" xmlns="http://www.w3.org/2000/svg">
<path d="M24.0039 35.4671H23.4344L23.2514 36.0064L21.6309 40.7816L21.2746 41.8315H22.3833H98.3387H99.4475L99.0912 40.7816L97.4706 36.0064L97.2876 35.4671H96.7182H24.0039Z" fill="#FEB01B" stroke="black" stroke-width="1.58915"/>
<path d="M19.3991 48.8978H18.8546L18.6581 49.4055L17.0348 53.599C16.7527 54.3279 17.2906 55.1129 18.0722 55.1129H102.8C103.581 55.1129 104.119 54.3279 103.837 53.599L102.214 49.4055L102.017 48.8978H101.473H19.3991Z" fill="#FEB01B" stroke="black" stroke-width="1.58915"/>
<path d="M22.0105 42.182H21.4488L21.2615 42.7115L19.5454 47.5613L19.1704 48.6209H20.2944H100.727H101.851L101.476 47.5613L99.7596 42.7115L99.5722 42.182H99.0105H22.0105Z" fill="#FF9900" stroke="black" stroke-width="1.58915"/>
<path d="M67.9714 34.6201H52.6758L49.2437 51.781H71.2543L67.9714 34.6201Z" fill="white" stroke="black" stroke-width="1.58915"/>
<path d="M26.2902 28.6019H25.7091L25.533 29.1557L24.0143 33.9309L23.685 34.9663H24.7715H95.9517H97.0382L96.7089 33.9309L95.1902 29.1557L95.0141 28.6019H94.433H26.2902Z" fill="#FF9900" stroke="black" stroke-width="1.58915"/>
<path d="M66.5542 27.9053H54.1685L52.6763 34.6204H67.9718L66.5542 27.9053Z" fill="white" stroke="black" stroke-width="1.58915"/>
<path d="M28.2899 21.7386H27.6983L27.5287 22.3053L26.0992 27.0805L25.7931 28.103H26.8604H93.8623H94.9296L94.6235 27.0805L93.1939 22.3053L93.0243 21.7386H92.4327H28.2899Z" fill="#FEB01B" stroke="black" stroke-width="1.58915"/>
<path d="M64.8285 21.1904H55.7604L54.168 27.9055H66.5536L64.8285 21.1904Z" fill="white" stroke="black" stroke-width="1.58915"/>
<path d="M30.1475 15.3216H29.5461L29.3828 15.9005L28.036 20.6757L27.7511 21.686H28.8008H91.9229H92.9725L92.6876 20.6757L91.3409 15.9005L91.1776 15.3216H90.5761H30.1475Z" fill="#FF9900" stroke="black" stroke-width="1.58915"/>
<path d="M63.42 15.4443H57.078L55.8096 21.1149H64.7631L63.42 15.4443Z" fill="white" stroke="black" stroke-width="1.58915"/>
<path d="M69.6651 51.6319H51.1776C50.4508 51.6319 49.9027 51.0223 50.1179 50.3281C50.4465 49.2679 51.1625 47.661 52.7176 45.8867C54.6179 43.7185 58.7804 42.1946 60.0708 41.7603C60.324 41.6751 60.5958 41.6801 60.8467 41.772C62.1814 42.2612 66.602 43.9837 68.2026 45.8867C69.9558 47.9712 70.5106 49.6075 70.6722 50.5919C70.7706 51.191 70.2722 51.6319 69.6651 51.6319Z" fill="#FEC72F" stroke="black" stroke-width="1.58915"/>
<rect x="20.6937" y="55.6117" width="79.9322" height="20.5407" fill="#FEC72F" stroke="black" stroke-width="1.58915"/>
<line x1="0.794574" y1="76.2054" x2="119.928" y2="76.2054" stroke="black" stroke-width="1.58915" stroke-linecap="round"/>
<rect x="16.2171" y="69.4906" width="88.8857" height="6.66279" rx="0.874031" fill="#FF9900" stroke="black" stroke-width="1.58915"/>
<line x1="34.5219" y1="62.777" x2="86.3552" y2="62.9222" stroke="black" stroke-width="1.58915" stroke-linecap="round"/>
<path d="M36.8584 60.4543V62.8983H84.3119V60.4598C84.3119 59.9113 83.9601 59.4246 83.4392 59.2526L60.7637 51.7647C60.5025 51.6785 60.2204 51.6793 59.9596 51.767L37.7242 59.2494C37.2069 59.4235 36.8584 59.9084 36.8584 60.4543Z" fill="#FF9900" stroke="black" stroke-width="1.58915"/>
<rect x="37.1083" y="62.9242" width="47.1027" height="13.2287" fill="#FEB01B" stroke="black" stroke-width="1.58915"/>
<rect x="45.0179" y="62.9242" width="31.1357" height="13.2287" fill="#FEC72F" stroke="black" stroke-width="1.58915"/>
<line x1="36.7765" y1="1.1124" x2="36.7765" y2="6.05039" stroke="black" stroke-width="2.22481" stroke-linecap="round"/>
<line x1="44.6847" y1="1.1124" x2="44.6847" y2="6.05039" stroke="black" stroke-width="2.22481" stroke-linecap="round"/>
<line x1="52.5934" y1="1.1124" x2="52.5934" y2="6.05039" stroke="black" stroke-width="2.22481" stroke-linecap="round"/>
<line x1="60.5035" y1="1.1124" x2="60.5035" y2="6.05039" stroke="black" stroke-width="2.22481" stroke-linecap="round"/>
<line x1="68.4117" y1="1.1124" x2="68.4117" y2="6.05039" stroke="black" stroke-width="2.22481" stroke-linecap="round"/>
<line x1="76.3209" y1="1.1124" x2="76.3209" y2="6.05039" stroke="black" stroke-width="2.22481" stroke-linecap="round"/>
<line x1="84.2291" y1="1.1124" x2="84.2291" y2="6.05039" stroke="black" stroke-width="2.22481" stroke-linecap="round"/>
<path d="M29.6889 10.6254L29.8716 11.1653H30.4415H90.1315H90.7349L90.8969 10.584L92.72 4.04213C93.188 2.36305 91.5071 0.908692 89.9216 1.49804C86.7089 2.69231 81.1353 4.5025 76.9997 4.5025H43.3495C41.3203 4.5025 38.8854 3.989 36.503 3.27877C34.1317 2.57183 31.8637 1.68581 30.1843 0.974064C28.5399 0.277131 26.7209 1.85335 27.3136 3.60515L29.6889 10.6254Z" fill="#FF9900" stroke="black" stroke-width="1.58915"/>
<rect x="49.8418" y="51.4824" width="21.1899" height="24.4729" fill="#FEB01B" stroke="black" stroke-width="2.22481"/>
<path d="M70.2853 76.1532H71.0798V75.3586V69.9119C71.0798 64.0749 66.348 59.3431 60.511 59.3431C54.6741 59.3431 49.9422 64.0749 49.9422 69.9119V75.3586V76.1532H50.7368H70.2853Z" fill="#FF9900" stroke="black" stroke-width="1.58915"/>
<path d="M66.4056 75.9735H67.0211V75.3581V69.3891C67.0211 65.8351 64.1399 62.9539 60.5859 62.9539C57.0318 62.9539 54.1507 65.8351 54.1507 69.3891V75.3581V75.9735H54.7661H66.4056Z" fill="white" stroke="black" stroke-width="1.23081"/>
<rect x="29.6478" y="11.1429" width="61.4283" height="4.27519" fill="#FEB01B" stroke="black" stroke-width="1.58915"/>
<path d="M60.4355 10.1465C60.0559 9.44846 60.0559 9.44849 60.0558 9.44853L60.0556 9.44861L60.0553 9.44881L60.0543 9.44934L60.0514 9.45095L60.0417 9.45628L60.0079 9.47504C59.9794 9.49101 59.9391 9.51378 59.8901 9.5422C59.7923 9.59881 59.6576 9.67899 59.5098 9.77338C59.2377 9.94706 58.8373 10.2207 58.5766 10.5102L59.1671 11.0418L58.5766 10.5102C58.3391 10.774 58.1344 11.1245 58.004 11.3666C57.9344 11.4956 57.877 11.611 57.8368 11.6944C57.8166 11.7363 57.8005 11.7706 57.7892 11.795L57.7759 11.8242L57.772 11.8328L57.7708 11.8355L57.7703 11.8365L57.7702 11.8369L57.7701 11.837C57.77 11.8371 57.77 11.8372 58.4956 12.161L57.77 11.8372L57.701 11.9918V12.161V14.5486V15.3432H58.4956H62.3008H63.0954V14.5486V12.161V11.9718L63.0101 11.8029L62.3008 12.161C63.0101 11.8029 63.0101 11.8028 63.01 11.8027L63.01 11.8026L63.0098 11.8022L63.0093 11.8012L63.0079 11.7985L63.0035 11.7899L62.9884 11.7607C62.9756 11.7362 62.9575 11.7019 62.9347 11.6599C62.8894 11.5763 62.8248 11.4607 62.7471 11.3316C62.6011 11.0892 62.3745 10.7406 62.1195 10.4829C61.8702 10.231 61.553 9.97933 61.3171 9.80189C61.1954 9.71039 61.0878 9.63301 61.0103 9.57828C60.9714 9.55085 60.9399 9.52894 60.9176 9.51361L60.8914 9.49562L60.884 9.49055L60.8817 9.48903L60.881 9.48853L60.8807 9.48835L60.8806 9.48827C60.8806 9.48824 60.8805 9.48821 60.4355 10.1465ZM60.4355 10.1465L60.0559 9.44846L60.4803 9.21766L60.8805 9.48821L60.4355 10.1465Z" fill="white" stroke="black" stroke-width="1.58915"/>
</svg>
